<?xml version="1.0" encoding="utf-8"?>
<!-- Generator: Adobe Illustrator 27.5.0, SVG Export Plug-In . SVG Version: 6.00 Build 0)  -->
<svg version="1.1" xmlns="http://www.w3.org/2000/svg" xmlns:xlink="http://www.w3.org/1999/xlink" x="0px" y="0px"
	 viewBox="0 0 500 500" style="enable-background:new 0 0 500 500;" xml:space="preserve">
<g id="Floor">
	<path id="Floor_00000044158082974984207690000007815813248234799495_" style="fill:#FAFAFA;" d="M87.004,252.052
		c-90.017,51.972-90.015,136.235,0.005,188.206c90.02,51.972,235.969,51.972,325.987,0c90.017-51.972,90.015-136.235-0.005-188.206
		C322.971,200.08,177.022,200.08,87.004,252.052z"/>
</g>
<g id="Paws">
	<g id="Paw_00000164487081161263314810000006891291123422497197_">
		<path style="fill:#F5F5F5;" d="M251.732,45.376c-1.618,0.377-2.971,1.469-4.522,2.064c-2.332,0.894-4.991,0.622-7.31,1.548
			c-3.012,1.203-5.004,4.464-4.915,7.706c0.09,3.242,2.141,6.301,5.008,7.817c2.002,1.058,4.198,1.665,6.209,2.728
			c1.821,0.963,3.263,2.41,5.291,3.066c1.859,0.601,3.945,0.631,5.727-0.169c1.165-0.524,1.957-1.211,2.659-2.286
			c1.094-1.674,2.417-4.274,2.147-6.346c-0.249-1.909-1.422-3.427-2.165-5.143c-0.78-1.8-0.845-3.817-1.255-5.735
			C257.906,47.346,255.375,44.528,251.732,45.376z"/>
		<path style="fill:#F5F5F5;" d="M243.088,44.819c0.542-0.216,1.046-0.526,1.544-0.834c1.465-0.904,1.942-2.13,1.915-3.852
			c-0.021-1.388-0.421-2.743-0.907-4.043c-0.349-0.932-0.835-1.977-1.477-2.749c-0.439-0.528-1.088-0.914-1.774-0.904
			c-0.985,0.014-1.777,0.797-2.368,1.585c-0.91,1.215-1.62,2.58-2.092,4.022c-0.386,1.178-0.615,2.437-0.409,3.66
			c0.206,1.222,0.901,2.405,1.999,2.981c0.973,0.51,2.233,0.574,3.269,0.241C242.89,44.895,242.99,44.859,243.088,44.819z"/>
		<path style="fill:#F5F5F5;" d="M250.423,31.253c1.042-2.16,2.721-3.93,5.217-3.891c2.919,0.045,3.792,3.601,3.541,5.945
			c-0.263,2.46-1.175,5.262-3.008,7.006c-2.384,2.268-5.395,1.174-6.483-1.75C248.828,36.244,249.372,33.43,250.423,31.253z"/>
		<path style="fill:#F5F5F5;" d="M263.81,55.603c-0.182-0.555-0.267-1.14-0.351-1.72c-0.246-1.704,0.388-2.856,1.726-3.94
			c1.078-0.874,2.374-1.437,3.683-1.898c0.939-0.331,2.052-0.627,3.056-0.63c0.686-0.002,1.399,0.249,1.832,0.782
			c0.621,0.765,0.529,1.875,0.303,2.833c-0.349,1.477-0.94,2.897-1.743,4.185c-0.656,1.052-1.475,2.035-2.545,2.661
			c-1.07,0.626-2.423,0.852-3.569,0.379c-1.016-0.419-1.873-1.345-2.282-2.353C263.879,55.804,263.843,55.704,263.81,55.603z"/>
		<path style="fill:#F5F5F5;" d="M270.329,41.102c0.97-2.194,1.229-4.619-0.418-6.495c-1.926-2.194-5.2-0.553-6.822,1.157
			c-1.703,1.795-3.245,4.305-3.386,6.832c-0.182,3.285,2.603,4.869,5.534,3.802C267.562,45.551,269.352,43.312,270.329,41.102z"/>
	</g>
	<g id="Paw_00000101062774780438540900000016694296976943150218_">
		<path style="fill:#EBEBEB;" d="M56.873,56.469c-0.88,1.697-0.936,3.697-1.576,5.499c-0.961,2.708-3.188,4.83-4.111,7.552
			c-1.199,3.535,0.163,7.715,3.066,10.061c2.903,2.346,7.112,2.839,10.582,1.464c2.423-0.96,4.595-2.427,7.028-3.391
			c2.203-0.873,4.548-1.052,6.638-2.336c1.916-1.177,3.502-2.979,4.134-5.136c0.413-1.411,0.404-2.617-0.011-4.035
			c-0.647-2.208-1.931-5.31-3.946-6.623c-1.856-1.209-4.061-1.319-6.117-1.951c-2.158-0.664-3.97-2.115-5.955-3.191
			C63.212,52.541,58.855,52.648,56.873,56.469z"/>
		<path style="fill:#EBEBEB;" d="M49.923,63.614c0.216-0.636,0.322-1.309,0.425-1.974c0.305-1.957-0.411-3.291-1.937-4.555
			c-1.23-1.019-2.714-1.683-4.215-2.23c-1.076-0.392-2.354-0.748-3.509-0.763c-0.79-0.011-1.613,0.269-2.117,0.876
			c-0.724,0.872-0.632,2.151-0.383,3.257c0.383,1.704,1.046,3.345,1.954,4.838c0.742,1.219,1.672,2.361,2.896,3.094
			s2.777,1.01,4.102,0.48c1.174-0.47,2.172-1.524,2.655-2.679C49.841,63.844,49.884,63.729,49.923,63.614z"/>
		<path style="fill:#EBEBEB;" d="M43.54,47.054c-1.111-2.527-1.403-5.318,0.497-7.473c2.221-2.519,5.985-0.624,7.847,1.347
			c1.955,2.069,3.724,4.962,3.88,7.87c0.202,3.781-3.007,5.597-6.378,4.362C46.713,52.181,44.659,49.601,43.54,47.054z"/>
		<path style="fill:#EBEBEB;" d="M74.849,53.55c-0.621-0.256-1.197-0.619-1.767-0.979c-1.674-1.058-2.208-2.475-2.156-4.456
			c0.042-1.597,0.518-3.151,1.094-4.641c0.413-1.069,0.986-2.264,1.734-3.145c0.512-0.602,1.264-1.038,2.053-1.018
			c1.133,0.028,2.035,0.939,2.705,1.854c1.032,1.41,1.831,2.988,2.358,4.654c0.43,1.36,0.678,2.812,0.425,4.216
			c-0.253,1.404-1.066,2.756-2.337,3.405c-1.126,0.575-2.576,0.633-3.765,0.237C75.076,53.64,74.962,53.597,74.849,53.55z"/>
		<path style="fill:#EBEBEB;" d="M67.038,37.005c-1.194-2.489-3.121-4.528-5.994-4.49c-3.358,0.044-4.372,4.135-4.089,6.832
			c0.297,2.831,1.34,6.058,3.445,8.07c2.737,2.616,6.205,1.364,7.464-1.998C68.862,42.752,68.242,39.513,67.038,37.005z"/>
	</g>
	<g id="Paw_00000097476771293100733470000006371424466171862440_">
		<path style="fill:#F5F5F5;" d="M417.432,61.067c-0.498,1.516-0.276,3.173-0.561,4.743c-0.429,2.361-1.98,4.408-2.376,6.775
			c-0.515,3.074,1.168,6.336,3.875,7.88c2.707,1.544,6.242,1.386,8.917-0.212c1.868-1.116,3.461-2.616,5.338-3.737
			c1.699-1.015,3.607-1.477,5.157-2.815c1.421-1.227,2.487-2.924,2.718-4.787c0.152-1.218-0.018-2.211-0.55-3.324
			c-0.829-1.733-2.303-4.117-4.139-4.929c-1.691-0.748-3.523-0.542-5.303-0.788c-1.867-0.258-3.556-1.211-5.335-1.831
			C422.129,56.98,418.553,57.653,417.432,61.067z"/>
		<path style="fill:#F5F5F5;" d="M412.662,67.887c0.093-0.553,0.09-1.122,0.086-1.684c-0.011-1.654-0.78-2.657-2.207-3.494
			c-1.15-0.675-2.462-1.023-3.772-1.273c-0.94-0.179-2.04-0.301-2.994-0.159c-0.652,0.097-1.293,0.438-1.628,1.006
			c-0.48,0.816-0.232,1.857,0.121,2.735c0.544,1.353,1.31,2.617,2.259,3.725c0.775,0.905,1.694,1.721,2.801,2.162
			c1.107,0.44,2.424,0.46,3.445-0.154c0.905-0.544,1.585-1.547,1.829-2.564C412.625,68.088,412.645,67.988,412.662,67.887z"/>
		<path style="fill:#F5F5F5;" d="M405.182,55.096c-1.254-1.934-1.869-4.194-0.592-6.225c1.493-2.374,4.849-1.317,6.648,0.059
			c1.888,1.443,3.734,3.59,4.252,5.966c0.673,3.089-1.728,5.016-4.671,4.45C408.484,58.896,406.445,57.044,405.182,55.096z"/>
		<path style="fill:#F5F5F5;" d="M431.855,56.252c-0.547-0.127-1.07-0.349-1.587-0.57c-1.522-0.648-2.151-1.743-2.374-3.383
			c-0.18-1.321,0.005-2.666,0.279-3.971c0.197-0.936,0.509-1.998,1.008-2.824c0.341-0.564,0.902-1.025,1.556-1.114
			c0.938-0.128,1.803,0.501,2.477,1.165c1.039,1.023,1.91,2.217,2.567,3.519c0.536,1.064,0.935,2.227,0.915,3.418
			c-0.02,1.191-0.509,2.414-1.47,3.119c-0.851,0.625-2.038,0.867-3.071,0.7C432.054,56.296,431.954,56.276,431.855,56.252z"/>
		<path style="fill:#F5F5F5;" d="M423.201,43.664c-1.318-1.891-3.179-3.313-5.542-2.897c-2.762,0.487-3.049,3.993-2.454,6.179
			c0.624,2.293,1.916,4.813,3.921,6.189c2.607,1.789,5.297,0.292,5.883-2.647C425.473,48.156,424.528,45.57,423.201,43.664z"/>
	</g>
	<g id="Paw_00000092429449436094703920000008418743681001365391_">
		<path style="fill:#EBEBEB;" d="M360.302,123.796c-2.379,1.024-4.155,3.074-6.371,4.413c-3.332,2.015-7.488,2.329-10.792,4.39
			c-4.291,2.677-6.45,8.229-5.419,13.18c1.031,4.951,5.021,9.08,9.839,10.617c3.364,1.073,6.901,1.398,10.28,2.476
			c3.059,0.976,5.672,2.8,8.965,3.247c3.018,0.41,6.228-0.118,8.742-1.838c1.644-1.124,2.669-2.398,3.451-4.24
			c1.217-2.87,2.532-7.225,1.547-10.33c-0.908-2.86-3.126-4.868-4.739-7.296c-1.693-2.548-2.348-5.624-3.506-8.456
			C370.319,125.117,365.659,121.49,360.302,123.796z"/>
		<path style="fill:#EBEBEB;" d="M346.883,125.323c0.773-0.481,1.46-1.096,2.14-1.705c1.999-1.791,2.394-3.803,1.878-6.438
			c-0.415-2.124-1.402-4.093-2.506-5.955c-0.792-1.335-1.826-2.804-3.024-3.811c-0.819-0.689-1.922-1.102-2.972-0.898
			c-1.508,0.293-2.508,1.713-3.197,3.086c-1.061,2.116-1.775,4.405-2.103,6.749c-0.268,1.914-0.273,3.91,0.381,5.729
			c0.654,1.819,2.045,3.443,3.888,4.024c1.635,0.515,3.585,0.265,5.083-0.531C346.599,125.494,346.743,125.411,346.883,125.323z"/>
		<path style="fill:#EBEBEB;" d="M354.401,102.482c1.004-3.603,3.092-6.78,6.934-7.409c4.491-0.736,6.811,4.482,7.072,8.147
			c0.274,3.847-0.354,8.399-2.686,11.581c-3.033,4.138-7.956,3.288-10.431-0.899C353.329,110.581,353.389,106.113,354.401,102.482z"
			/>
		<path style="fill:#EBEBEB;" d="M381.655,136.162c-0.432-0.801-0.724-1.676-1.012-2.542c-0.847-2.547-0.191-4.49,1.563-6.522
			c1.414-1.638,3.247-2.859,5.129-3.927c1.35-0.766,2.977-1.529,4.517-1.809c1.053-0.192,2.215-0.004,3.026,0.695
			c1.164,1.002,1.328,2.731,1.245,4.265c-0.128,2.363-0.645,4.705-1.522,6.903c-0.717,1.795-1.703,3.53-3.173,4.785
			c-1.47,1.255-3.483,1.975-5.372,1.565c-1.675-0.363-3.244-1.548-4.151-2.982C381.817,136.451,381.733,136.308,381.655,136.162z"/>
		<path style="fill:#EBEBEB;" d="M387.664,112.112c0.884-3.634,0.614-7.426-2.432-9.852c-3.56-2.836-8.132,0.584-10.151,3.655
			c-2.118,3.223-3.794,7.501-3.313,11.417c0.625,5.092,5.336,6.755,9.541,4.31C384.644,119.702,386.774,115.774,387.664,112.112z"/>
	</g>
	<g id="Paw_00000084524504709530776640000000820012423371274159_">
		<path style="fill:#EBEBEB;" d="M453.303,149.624c-1.365,0.511-2.418,1.615-3.7,2.308c-1.927,1.042-4.272,1.106-6.184,2.175
			c-2.484,1.388-3.848,4.45-3.403,7.26s2.576,5.24,5.242,6.233c1.862,0.694,3.841,0.973,5.71,1.67
			c1.693,0.631,3.112,1.727,4.95,2.068c1.685,0.312,3.503,0.102,4.963-0.796c0.955-0.587,1.565-1.275,2.054-2.29
			c0.762-1.58,1.619-3.992,1.149-5.764c-0.433-1.632-1.625-2.82-2.466-4.229c-0.882-1.478-1.167-3.225-1.741-4.847
			C458.897,150.638,456.376,148.473,453.303,149.624z"/>
		<path style="fill:#EBEBEB;" d="M445.72,150.119c0.447-0.25,0.851-0.576,1.249-0.9c1.172-0.952,1.448-2.073,1.23-3.568
			c-0.176-1.205-0.677-2.338-1.247-3.414c-0.409-0.772-0.95-1.625-1.596-2.224c-0.442-0.409-1.05-0.672-1.646-0.585
			c-0.855,0.124-1.456,0.895-1.88,1.648c-0.654,1.16-1.117,2.428-1.365,3.736c-0.203,1.069-0.259,2.19,0.059,3.23
			c0.318,1.04,1.056,1.99,2.076,2.367c0.905,0.334,2.008,0.246,2.871-0.161C445.556,150.207,445.638,150.164,445.72,150.119z"/>
		<path style="fill:#EBEBEB;" d="M450.564,137.486c0.662-1.998,1.922-3.727,4.098-3.976c2.544-0.292,3.706,2.703,3.754,4.771
			c0.05,2.17-0.426,4.711-1.823,6.436c-1.817,2.243-4.561,1.632-5.838-0.788C449.742,142.008,449.897,139.499,450.564,137.486z"/>
		<path style="fill:#EBEBEB;" d="M464.968,157.153c-0.221-0.462-0.362-0.962-0.5-1.456c-0.407-1.454,0.014-2.529,1.055-3.623
			c0.839-0.882,1.903-1.519,2.989-2.068c0.779-0.394,1.714-0.778,2.588-0.894c0.597-0.079,1.245,0.058,1.682,0.473
			c0.627,0.595,0.672,1.571,0.584,2.431c-0.136,1.325-0.49,2.627-1.042,3.839c-0.452,0.989-1.053,1.938-1.913,2.603
			c-0.86,0.666-2.011,1.015-3.062,0.734c-0.931-0.25-1.781-0.958-2.252-1.789C465.051,157.32,465.009,157.237,464.968,157.153z"/>
		<path style="fill:#EBEBEB;" d="M468.997,143.799c0.595-2.019,0.546-4.157-1.1-5.603c-1.924-1.69-4.586,0.108-5.804,1.779
			c-1.278,1.754-2.336,4.113-2.172,6.327c0.213,2.879,2.816,3.941,5.245,2.681C467.094,147.983,468.398,145.833,468.997,143.799z"/>
	</g>
	<g id="Paw_00000102510314126292163660000002473704432999076246_">
		<path style="fill:#F5F5F5;" d="M51.898,182.575c-1.052,1.919-1.169,4.207-1.948,6.251c-1.172,3.074-3.776,5.444-4.904,8.534
			c-1.465,4.013-0.017,8.833,3.244,11.594c3.261,2.761,8.065,3.436,12.072,1.954c2.798-1.035,5.322-2.657,8.132-3.696
			c2.545-0.941,5.233-1.085,7.658-2.499c2.223-1.296,4.086-3.317,4.866-5.769c0.51-1.604,0.531-2.985,0.093-4.618
			c-0.682-2.544-2.07-6.128-4.341-7.683c-2.092-1.433-4.613-1.616-6.949-2.394c-2.452-0.817-4.488-2.524-6.731-3.808
			C59.256,178.247,54.267,178.255,51.898,182.575z"/>
		<path style="fill:#F5F5F5;" d="M43.757,190.569c0.264-0.722,0.403-1.489,0.539-2.248c0.4-2.232-0.384-3.777-2.097-5.264
			c-1.381-1.199-3.061-1.997-4.764-2.663c-1.221-0.477-2.674-0.918-3.996-0.966c-0.903-0.033-1.853,0.265-2.446,0.947
			c-0.852,0.979-0.78,2.444-0.525,3.717c0.393,1.961,1.109,3.856,2.109,5.588c0.817,1.414,1.851,2.745,3.232,3.617
			c1.381,0.871,3.152,1.229,4.681,0.658c1.356-0.507,2.525-1.687,3.109-2.996C43.657,190.831,43.709,190.701,43.757,190.569z"/>
		<path style="fill:#F5F5F5;" d="M36.888,171.451c-1.204-2.921-1.466-6.122,0.765-8.539c2.608-2.825,6.866-0.557,8.945,1.749
			c2.183,2.42,4.131,5.777,4.233,9.108c0.132,4.332-3.589,6.326-7.413,4.824C40.385,177.402,38.101,174.395,36.888,171.451z"/>
		<path style="fill:#F5F5F5;" d="M72.547,179.709c-0.705-0.309-1.354-0.74-1.996-1.167c-1.888-1.255-2.462-2.89-2.35-5.156
			c0.09-1.826,0.676-3.592,1.374-5.282c0.5-1.212,1.188-2.566,2.067-3.553c0.601-0.675,1.473-1.154,2.376-1.111
			c1.296,0.062,2.304,1.128,3.046,2.193c1.144,1.64,2.017,3.468,2.576,5.388c0.456,1.568,0.702,3.236,0.375,4.836
			c-0.326,1.6-1.293,3.126-2.764,3.835c-1.304,0.629-2.965,0.656-4.315,0.172C72.805,179.817,72.675,179.765,72.547,179.709z"/>
		<path style="fill:#F5F5F5;" d="M64.044,160.569c-1.301-2.879-3.453-5.264-6.742-5.296c-3.845-0.038-5.112,4.617-4.859,7.711
			c0.265,3.248,1.374,6.968,3.73,9.326c3.064,3.066,7.066,1.724,8.594-2.09C65.979,167.194,65.355,163.47,64.044,160.569z"/>
	</g>
</g>
<g id="Shadows">
	<path id="Shadow_40_" style="fill:#E6E6E6;" d="M107.636,422.388c-18.303,9.95-47.977,9.95-66.28,0
		c-18.303-9.947-18.303-26.078,0-36.028c18.303-9.948,47.977-9.948,66.28,0C125.938,396.31,125.938,412.441,107.636,422.388z"/>
	<path id="Shadow_00000150094436788558804810000017201603723203780770_" style="fill:#E6E6E6;" d="M420.944,401.639
		c-46.072,25.047-120.769,25.047-166.842,0c-46.074-25.04-46.074-65.646,0-90.692c46.073-25.041,120.769-25.041,166.842,0
		C467.017,335.993,467.017,376.599,420.944,401.639z"/>
	<path id="Shadow_00000113321227021136420570000016703470832210438830_" style="fill:#E6E6E6;" d="M205.071,391.6
		c-31.335,17.035-82.138,17.035-113.473,0c-31.336-17.03-31.336-44.647,0-61.682c31.335-17.031,82.138-17.031,113.473,0
		C236.406,346.953,236.406,374.57,205.071,391.6z"/>
	<path id="Shadow_00000013190138292259089200000016390482512304520339_" style="fill:#E6E6E6;" d="M462.045,422.388
		c-18.303,9.95-47.977,9.95-66.28,0c-18.303-9.947-18.303-26.078,0-36.028c18.303-9.948,47.977-9.948,66.28,0
		C480.348,396.31,480.348,412.441,462.045,422.388z"/>
</g>
<g id="Dog">
	<g id="Dog_00000020367179765092286040000006567584170272511143_">
		<g>
			<path style="fill:#455A64;" d="M166.663,260.678c-0.22-0.018-0.441-0.036-0.661-0.055c-5.342-0.443-9.343,0.027-13.99,2.799
				c-3.841,2.292-7.682,4.584-11.523,6.875c-2.688,1.604-5.379,3.209-7.932,5.02c-1.932,1.37-3.84,2.925-4.897,5.045
				c-0.803,1.611-0.961,3.487-0.315,5.17c0.205,0.535,0.59,1.308,0.95,1.743c0.184,0.223,1.651,1.061,1.654,1.075
				c0.977,4.035,5.681,6.729,9.655,5.531c0.326-0.098,0.668-0.22,0.999-0.14c0.325,0.078,0.571,0.335,0.814,0.564
				c2.209,2.078,5.566,2.604,8.523,1.926c2.956-0.678,5.566-2.412,7.875-4.379c2.309-1.967,4.388-4.195,6.737-6.114
				c5.805-4.743,12.839-2.987,19.51-1.658c8.433,1.68,16.825,3.566,25.165,5.655c2.671,0.669,5.742,1.722,6.59,4.342
				c0.282,0.872,0.268,1.821,0.572,2.685c0.304,0.864,1.113,1.683,2.014,1.519c0.416-0.076,0.767-0.346,1.1-0.608
				c1.031-0.811,2.062-1.623,3.093-2.434c-0.516,1.541,1.465,3.006,3.031,2.57c1.565-0.436,2.534-2.009,3.045-3.551
				c0.511-1.543,0.732-3.203,1.548-4.608c0.647-1.114,1.626-1.99,2.577-2.858c7.505-6.843,14.429-14.499,19.194-23.468
				c1.401-2.637,2.624-5.429,2.975-8.395c0.727-6.148-3.657-10.319-7.628-14.48c-4.22-4.421-9.003-8.306-14.203-11.517
				c-2.591-1.6-5.404-3.07-8.447-3.209c-0.704-0.032-1.436,0.015-2.06,0.34c-0.807,0.42-1.318,1.238-1.766,2.03
				c-5.659,9.997-7.612,21.871-14.02,31.405c-0.707,1.052-1.511,2.109-2.653,2.658c-1.135,0.546-2.451,0.518-3.71,0.476
				C189.195,262.253,177.918,261.601,166.663,260.678z"/>
			<path style="fill:#E0E0E0;" d="M229.411,285.056c0.966-1.181,1.954-2.4,2.417-3.853c0.464-1.454,0.288-3.217-0.83-4.256
				c-0.773-0.717-1.853-0.981-2.89-1.17c-3.318-0.603-6.727-0.699-10.073-0.282c0.518-2.101,1.033-4.341,0.336-6.389
				c-0.697-2.048-3.124-3.658-5.056-2.684c0.689-3.713,1.024-7.491,1.001-11.267c-0.005-0.807-0.042-1.664-0.494-2.332
				c-0.654-0.966-1.743-1.119-2.884-0.839c-1.172,2.607-2.494,5.134-4.094,7.515c-0.707,1.052-1.511,2.109-2.653,2.658
				c-1.135,0.546-2.451,0.518-3.71,0.476c-11.286-0.38-22.564-1.032-33.818-1.955c-0.22-0.018-0.441-0.036-0.661-0.055
				c-5.343-0.443-9.343,0.027-13.99,2.799c-3.841,2.292-7.682,4.584-11.523,6.875c-2.688,1.604-5.379,3.21-7.932,5.02
				c-1.932,1.37-3.84,2.925-4.897,5.045c-0.803,1.611-0.961,3.487-0.315,5.17c0.205,0.535,0.592,1.306,0.95,1.743
				c0.7,0.856,1.651,1.061,1.655,1.075c0.977,4.035,5.681,6.729,9.655,5.531c0.326-0.098,0.668-0.22,0.999-0.14
				c0.325,0.079,0.571,0.335,0.814,0.564c2.209,2.078,5.566,2.604,8.523,1.926c2.956-0.678,5.566-2.412,7.875-4.379
				c2.309-1.967,4.388-4.195,6.737-6.114c5.805-4.743,12.839-2.987,19.51-1.658c8.433,1.68,16.825,3.566,25.165,5.655
				c2.671,0.669,5.742,1.722,6.59,4.342c0.282,0.872,0.268,1.821,0.572,2.685c0.304,0.865,1.113,1.683,2.015,1.519
				c0.416-0.076,0.767-0.346,1.1-0.608c1.031-0.811,2.062-1.623,3.094-2.434c-0.516,1.541,1.465,3.006,3.03,2.57
				c1.566-0.436,2.535-2.008,3.045-3.551c0.51-1.543,0.732-3.203,1.548-4.608c0.647-1.114,1.626-1.99,2.577-2.858
				c0.322-0.293,0.635-0.597,0.954-0.893C232.429,285.179,230.919,284.831,229.411,285.056z"/>
			<g>
				<path style="opacity:0.2;" d="M140.577,293.485c-1.154-3.542-0.057-6.502,2.867-8.754c2.514-2.01,5.255-3.721,8.223-4.94
					l-3.873,2.788C143.74,285.655,139.899,287.677,140.577,293.485L140.577,293.485z"/>
				<path style="opacity:0.2;" d="M130.04,288.132c-0.23-3.307,1.899-5.919,4.669-7.465c2.603-1.57,5.372-2.842,8.304-3.626
					c-2.307,1.3-5.588,3.082-7.817,4.422C132.536,282.921,130.546,285.032,130.04,288.132L130.04,288.132z"/>
			</g>
		</g>
		<g>
			<path style="fill:#37474F;" d="M286.085,254.965c-1.729,0.959-3.376,2.064-4.911,3.324c-2.575,2.111-4.805,4.621-6.767,7.311
				c-8.422,11.549-11.655,27.527-5.62,40.485c6.379,13.697,22.233,21.576,37.319,20.736c-6.603,3.014-14.612,0.682-21.563,2.842
				c-3.514,1.092-6.148,4.893-6.826,8.507c-0.678,3.614,0.431,7.326,5,7.326c0.051,1.778,3.364,5.015,9.319,3.383
				c0.308,1.305,1.048,3.665,10.987,1.994c9.939-1.67,39.013-13.455,50.842-20.193c3.925-2.236,8.643-4.911,13.097-8.97
				c7.258-6.277,12.057-15.42,14.237-24.873c2.757-11.954,1.802-24.439,0.15-36.596c-2.659-19.568-7.327-42.499-29.553-47.799
				c-2.551-0.608-5.23-0.915-7.793-0.357c-4.12,0.897-7.498,3.953-9.79,7.492c-5.264,8.127-5.48,18.453-4.914,28.121
				c0.464,7.929-5.412,4.028-10.453,3.197c-5.181-0.854-10.454-1.256-15.698-0.842C297.207,250.523,291.272,252.087,286.085,254.965
				z"/>
			<path style="fill:#263238;" d="M282.72,345.53c-0.701-4.197-0.437-9.231,3.537-10.953c3.974-1.722,11.259-1.325,11.259-1.325
				s-9.67-1.457-13.246,0.795C280.694,336.299,281.567,342.309,282.72,345.53z"/>
			<path style="fill:#263238;" d="M292.035,348.884c-0.701-4.197-0.436-9.231,3.537-10.953c3.974-1.722,11.259-1.325,11.259-1.325
				s-9.67-1.457-13.246,0.795C290.009,339.653,290.883,345.663,292.035,348.884z"/>
		</g>
		<g>
			<path style="fill:#F5F5F5;" d="M313.209,314.556c1.991,0.213,4.234-0.77,4.88-2.665c-1.732,4.355,1.036,9.528,5.14,11.792
				c4.103,2.264,9.095,2.209,13.719,1.44c16.503-2.744,31.533-14.781,36.304-30.817c2.542-8.542,2.214-17.73,0.444-26.465
				c-2.624-12.948-8.393-25.232-16.58-35.601c-6.328-8.015-14.515-15.124-24.449-17.492s-21.727,1.142-26.692,10.066
				c-1.688,3.033-2.514,6.472-3.009,9.908c-1.826,12.682,0.632,25.522-0.913,38.218c-0.984,8.081-2.987,16.365-1.427,24.505
				C301.889,304.041,305.236,313.702,313.209,314.556z"/>
			<path style="fill:#E0E0E0;" d="M357.705,278.921c-4.601-2.205-9.944-2.399-14.99-1.639c-3.673,0.553-7.551,1.773-9.74,4.773
				c-0.478-2.465-4.016-3.168-6.124-1.805c-2.109,1.363-3.088,3.893-3.939,6.255c-0.585-3.539-1.521-7.58-4.716-9.211
				c-3.3-1.684-7.662,0.596-9.879,3.124c-1.796,2.048-2.894,4.617-3.679,7.225c-0.549-1.147-2.193-1.133-3.404-0.746
				c-0.357,0.114-0.695,0.267-1.037,0.412c-0.249,3.387-0.217,6.774,0.428,10.137c1.264,6.595,4.612,16.256,12.584,17.111
				c1.991,0.214,4.234-0.77,4.88-2.665c-1.732,4.355,1.036,9.528,5.14,11.792c4.103,2.264,9.095,2.209,13.719,1.44
				c4.778-0.794,9.431-2.372,13.749-4.596c5.442-5.83,9.68-12.762,13.031-20.022c1.427-3.093,2.73-6.385,2.552-9.786
				C366.012,285.622,362.306,281.126,357.705,278.921z"/>
		</g>
		<g>
			<path style="fill:#455A64;" d="M263.655,180.755c-0.323,0.572-0.64,1.147-0.952,1.726c-5.115,9.479-8.422,20.728-4.982,31.342
				c3.601,11.11,13.666,20.353,23.14,26.632c5.156,3.418,20.352,11.774,24.926,3.281c1.237-2.297,1.164-5.042,1.241-7.65
				c0.098-3.324,0.559-6.816,2.554-9.476c1.996-2.66,5.959-4.091,8.774-2.321c2.256,1.419,3.073,4.303,3.331,6.956
				c0.258,2.653,0.164,5.432,1.314,7.836c0.286,0.599,0.673,1.188,1.262,1.494c0.827,0.43,1.838,0.205,2.744,0.422
				c5.78,1.384,4.085,17.096,3.494,21.257c-0.263,1.85-0.217,4.266,1.526,4.939c1.226,0.473,2.549-0.269,3.698-0.909
				c2.645-1.472,5.523-2.524,8.494-3.104c1.007-0.196,2.336-0.174,2.716,0.779c0.35,0.875-0.415,1.753-1.002,2.49
				c-1.005,1.261-1.635,2.818-1.789,4.423c-0.042,0.44-0.033,0.932,0.264,1.259c0.281,0.309,0.736,0.377,1.153,0.411
				c2.336,0.188,4.684-0.112,7.027-0.058c6.238,0.142,11.959,5.908,11.673,12.194c-15.312-6.458-29.926,4.086-38.26,16.326
				c-4.546,6.677-6.992,14.863-6.314,22.912c0.591,7.016,2.388,12.032,6.391,17.824c4.472,6.472,16.848,13.983,24.04,13.774
				c-0.004,0.002-3.395,1.189-10.282,2.36c-10.754,1.829-14.124,0.7-19.497,2.369c-3.514,1.092-6.148,4.893-6.826,8.508
				c-0.678,3.614,0.431,7.325,5,7.325c0.051,1.778,3.364,5.015,9.319,3.383c0.308,1.305,1.048,3.665,10.987,1.994
				c9.939-1.67,39.013-13.455,50.842-20.193c3.925-2.236,8.643-4.911,13.097-8.97c7.258-6.277,12.057-15.42,14.237-24.873
				c2.757-11.954,1.802-24.439,0.15-36.595c-6.892-50.717-34.596-75.692-45.012-86.219c-8.139-8.226-17.559-14.482-27.59-20.144
				c-9.394-5.301-19.146-10.696-25.95-19.305c-2.954-3.738-5.358-7.888-8.365-11.583c-2.673-3.284-6.155-7.151-10.649-7.192
				c-4.831-0.044-9.378,3.34-12.864,6.326C277.475,160.62,269.634,170.161,263.655,180.755z"/>
			<path style="fill:#263238;" d="M318.517,376.111c-0.702-4.197-0.437-9.231,3.537-10.953c3.974-1.722,11.259-1.325,11.259-1.325
				s-9.67-1.457-13.246,0.795C316.49,366.88,317.363,372.891,318.517,376.111z"/>
			<path style="fill:#263238;" d="M327.832,379.465c-0.701-4.197-0.437-9.231,3.537-10.953c3.974-1.722,11.259-1.325,11.259-1.325
				s-9.67-1.457-13.246,0.795C325.806,370.234,326.679,376.244,327.832,379.465z"/>
		</g>
		<g>
			<path style="fill:#455A64;" d="M278.962,288.392c2.228,10.571,3.41,13.947,4.146,27.938c0.736,13.991,6.627,24.066,5.49,31.606
				c-1.137,7.54-3.538,20.257-11.009,28.388c-7.03,7.651-13.132,6.605-12.507,15.028c0.147,0.793,1.086,4.055,4.582,3.977
				c1.074,3.515,5.809,2.978,5.809,2.978s1.562,4.442,15.366,0.317c7.302-2.182,8.796-11.251,10.268-15.747
				c1.473-4.496,4.341-12.271,7.636-19.206c3.295-6.935,3.45-13.309,3.45-13.309c1.841-0.941,5.522,1.193,5.522,1.193
				s0.209-4.762-3.776-7.064c5.429-2.759,3.409-7.548,3.409-7.548s-2.945,3.682-5.523,0s-1.473-18.038,0.736-39.558
				c1.182-11.519,4.087-12.392,5.164-23.925c0.462-4.95,1.107-10.755-0.049-15.647c-1.163-4.925-4.21-9.492-5.889-14.267
				c-1.744-4.958-2.605-10.507-0.748-15.423c0.967-2.56,2.63-4.835,3.398-7.462c0.955-3.267,0.441-6.772-0.269-10.101
				c-2.536-11.887-7.716-22.321-13.973-32.632c-4.142-6.826-10.357-17.418-19.625-17.089c-23.619,1.114-58.421,43.359-52.721,89.038
				"/>
			<path style="fill:#F5F5F5;" d="M313.94,344.493c5.428-2.758,3.409-7.547,3.409-7.547s-2.945,3.682-5.523,0
				c-1.728-2.468-1.799-9.739-0.995-20.743c-0.043-0.038-0.082-0.08-0.126-0.117c-0.646-0.547-1.431-1.057-2.272-0.958
				c-1.369,0.161-2.015,1.738-2.386,3.066c-0.583,2.087-1.166,4.174-1.749,6.261c-0.225,0.804-0.632,1.767-1.465,1.827
				c-0.717,0.052-1.251-0.616-1.688-1.187c-0.542-0.71-1.162-1.39-1.956-1.797c-0.794-0.408-1.797-0.502-2.566-0.05
				c-1.407,0.826-1.364,3.859-3.293,3.877c-0.674,0.006-1.228-0.507-1.687-1c-2.043-2.192-3.775-4.673-5.128-7.345
				c-0.598-1.18-1.14-2.423-2.066-3.367c-0.394-0.401-0.884-0.739-1.435-0.827c0.032,0.582,0.065,1.163,0.095,1.746
				c0.736,13.991,6.627,24.066,5.49,31.606c-1.137,7.54-3.538,20.257-11.009,28.388c-7.03,7.651-13.132,6.605-12.507,15.028
				c0.147,0.793,1.086,4.056,4.582,3.977c1.074,3.515,5.809,2.978,5.809,2.978s1.562,4.442,15.366,0.318
				c7.302-2.182,8.796-11.251,10.268-15.747c1.473-4.496,4.341-12.271,7.636-19.206c3.295-6.935,3.45-13.309,3.45-13.309
				c1.841-0.941,5.522,1.193,5.522,1.193S317.925,346.794,313.94,344.493z"/>
			<g>
				<path style="fill:#E0E0E0;" d="M275.474,398.308c-0.655-1.829-1.215-4.831,1.431-6.052c2.646-1.221,5.699-2.85,5.699-2.85
					s-5.903,1.832-7.226,2.697C274.055,392.968,273.585,395.505,275.474,398.308z"/>
				<path style="fill:#E0E0E0;" d="M269.667,395.333c-0.655-1.829-1.215-4.831,1.431-6.052c2.646-1.221,5.699-2.85,5.699-2.85
					s-5.903,1.832-7.226,2.697C268.249,389.993,267.778,392.531,269.667,395.333z"/>
			</g>
		</g>
		<g>
			<path style="fill:#F5F5F5;" d="M210.929,218.441c-2.523,8.56-2.585,18.186,1.649,26.042c1.311-1.955,2.622-3.911,3.933-5.866
				c0.144,15.344,9.735,29.416,22.109,38.49c12.506,9.171,26.49,12.97,41.299,16.378c-0.657-4.072-1.737-8.388-2.394-12.46
				c-0.983-6.096-1.893-12.692,0.974-18.162c2.399-4.578,7.016-7.501,10.451-11.363c3.803-4.275,6.158-9.816,6.597-15.522
				c0.08-1.038,0.087-2.132-0.386-3.06c-0.945-1.85-3.381-2.325-5.454-2.185c-2.073,0.139-4.222,0.659-6.178-0.043
				c1.659-3.611,4.903-6.188,7.514-9.182c4.934-5.658,7.707-13.157,7.641-20.665c-2.222-0.487-4.512-0.662-6.781-0.519
				c0.814-5.117,1.628-10.234,2.442-15.351c0.18-1.129,0.352-2.327-0.089-3.382c-0.743-1.779-3.022-2.475-4.908-2.079
				c-1.886,0.396-3.482,1.603-5.051,2.723c-11.605,8.284-25.437,13.417-39.637,14.709c-4.768,0.434-9.317,0.194-14.011-0.686
				c-3.095-0.58-5.437-1.666-8.239,0.268C216.803,200.396,212.766,212.207,210.929,218.441z"/>
			<path style="fill:#EBEBEB;" d="M258.286,267.57c-0.039-0.609-0.128-1.214-0.291-1.789c-0.065-0.23-0.214-0.507-0.45-0.473
				c-0.132,0.019-0.227,0.134-0.301,0.245c-0.647,0.955-0.846,2.133-1.094,3.26c-0.079,0.36-0.175,0.737-0.431,1.001
				c-0.586,0.606-1.278-0.103-1.83-0.38c-1.742-0.872-3.189-2.272-4.677-3.504c-1.121-0.928-3.355-2.361-4.445-0.519
				c-0.815,1.377,0.204,2.976,0.229,4.443c-5.862-3.214-10.622-8.502-13.27-14.639c-0.204-0.472-0.554,0.064-0.462,0.383
				c2.158,7.491,7.252,13.539,14.212,17.086c0.557,0.284,1.488,0.387,1.835-0.289c0.485-0.943,0.546-1.877,0.401-2.917
				c-0.078-0.56-0.234-1.108-0.306-1.669c-0.008-0.045-0.004-0.09-0.01-0.135c0.294,0.276,0.72,0.541,0.968,0.755
				c0.404,0.35,0.808,0.701,1.22,1.04c0.822,0.676,1.673,1.303,2.592,1.842c1.368,0.802,3.979,2.176,5.391,0.755
				c0.686-0.69,0.659-1.934,0.715-2.827C258.314,268.695,258.322,268.131,258.286,267.57z"/>
			<path style="fill:#EBEBEB;" d="M265.313,233.016c-0.456,0.753-0.685,1.539-1.037,2.34c-0.286,0.652-0.56,1.249-0.78,1.934
				c-0.504,1.576-1.046,3.129-1.499,4.726c-0.37,1.305-0.567,2.661-0.965,3.957c-0.092,0.302-0.266,0.938-0.585,1.128
				c-0.008-0.012-0.044-0.029-0.138-0.055c-0.353-0.099-0.71-0.35-1.039-0.514c-0.718-0.357-1.435-0.718-2.158-1.065
				c-0.599-0.288-1.282-0.683-1.977-0.645c-1.355,0.073-1.056,1.533-1.053,2.467c0.003,0.804-0.094,1.593-0.221,2.385
				c-0.074,0.459-0.08,1.402-0.367,1.778c-0.668,0.876-3.188-1.139-3.869-1.68c-0.295-0.235-0.369,0.395-0.243,0.563
				c0.883,1.172,2.059,2.144,3.427,2.698c1.355,0.549,1.877-0.269,2.331-1.435c0.293-0.753,0.494-1.512,0.619-2.311
				c0.11-0.701,0.009-1.525,0.173-2.203c0.141,0.092,0.282,0.184,0.424,0.275c0.373,0.241,0.744,0.482,1.123,0.714
				c0.702,0.431,1.401,0.919,2.155,1.254c1.312,0.583,2.844,0.412,3.751-0.779c0.882-1.158,1.117-2.758,1.494-4.125
				c0.521-1.89,0.947-3.815,1.227-5.754c0.232-1.614,0.536-3.266,0.475-4.903C266.565,233.322,265.693,232.388,265.313,233.016z"/>
		</g>
		<g>
			<g>
				<path style="fill:#BA68C8;" d="M212.574,197.721c-1.389,3.64-0.379,8.007,0.782,11.865c2.181,7.248,4.69,14.448,8.392,21.051
					c3.702,6.602,8.665,12.621,15.024,16.728c1.213,0.783,2.788,1.502,4.03,0.766c1.001-0.594,1.312-1.874,1.52-3.02
					c0.695-3.836,1.291-7.784,3.171-11.199c1.987-3.609,5.237-6.317,8.332-9.036c6.931-6.089,13.227-12.754,19.863-19.097
					c6.637-6.343,12.567-13.424,17.642-21.074c4.253-6.412,8.69-14.649,7.111-22.604c-7.571,1.972-14.9,5.451-22.513,7.551
					c-7.846,2.163-15.821,3.859-23.868,5.076c-7.558,1.143-15.178,1.875-22.818,2.11c-3.859,0.119-10.945-0.752-13.615,2.877
					c-2.557,3.475,0.522,5.949,1.409,9.106c0.764,2.717-2.114,4.906-3.642,7.279C213.058,196.618,212.788,197.161,212.574,197.721z"
					/>
				<path style="opacity:0.3;fill:#FFFFFF;" d="M212.574,197.721c-1.389,3.64-0.379,8.007,0.782,11.865
					c2.181,7.248,4.69,14.448,8.392,21.051c3.702,6.602,8.665,12.621,15.024,16.728c1.213,0.783,2.788,1.502,4.03,0.766
					c1.001-0.594,1.312-1.874,1.52-3.02c0.695-3.836,1.291-7.784,3.171-11.199c1.987-3.609,5.237-6.317,8.332-9.036
					c6.931-6.089,13.227-12.754,19.863-19.097c6.637-6.343,12.567-13.424,17.642-21.074c4.253-6.412,8.69-14.649,7.111-22.604
					c-7.571,1.972-14.9,5.451-22.513,7.551c-7.846,2.163-15.821,3.859-23.868,5.076c-7.558,1.143-15.178,1.875-22.818,2.11
					c-3.859,0.119-10.945-0.752-13.615,2.877c-2.557,3.475,0.522,5.949,1.409,9.106c0.764,2.717-2.114,4.906-3.642,7.279
					C213.058,196.618,212.788,197.161,212.574,197.721z"/>
				<path style="opacity:0.3;fill:#BA68C8;" d="M231.079,204.013c1.859,1.142,3.909,1.894,6.27,1.931
					c2.5,0.04,4.957-0.607,7.356-1.311c4.002-1.174,7.953-2.52,11.839-4.033c1.015-0.395,2.082-0.809,3.161-0.659
					c1.079,0.15,2.13,1.095,1.977,2.173c-0.139,0.979-1.114,1.615-1.644,2.378c-0.69,0.995-1.369,1.679-2.327,2.496
					c-2.279,1.942-4.557,3.883-6.836,5.825c-2.723,2.321-5.447,4.642-8.171,6.963c-1.392,1.186-2.837,2.332-4.186,3.567
					c-1.246,1.141-2.149,2.079-3.927,1.721c-1.69-0.34-3.023-1.429-4.183-2.653c-3.263-3.44-5.514-7.675-7.369-12.001
					c-0.878-2.049-1.879-4.159-2.295-6.345c-0.432-2.274-1.572-4.317-1.725-6.682c-0.114-1.755,1.095-3.39,2.815-1.781
					C224.769,198.348,227.587,201.869,231.079,204.013z"/>
				<path style="opacity:0.3;fill:#BA68C8;" d="M240.895,201.336c-1.781,0.066-3.729,0.204-5.358-0.661
					c-0.849-0.451-2.993-1.771-1.451-2.697c0.965-0.579,2.497-0.276,3.57-0.346c1.356-0.088,2.706-0.259,4.048-0.47
					c2.682-0.422,5.331-1.027,7.993-1.559c0.87-0.174,2.069-0.128,2.286,0.732c0.143,0.569-0.285,1.115-0.716,1.512
					C248.53,200.376,244.62,201.199,240.895,201.336z"/>
			</g>
			<g>
				<path style="fill:#455A64;" d="M234.101,85.171c-2.154-2.115-4.309-4.23-6.463-6.345c-1.551-1.522-3.107-2.943-5.508-1.892
					c-2.676,1.172-5.352,2.344-8.029,3.515c-1.141,0.5-2.311,1.018-3.156,1.844c-0.868,0.848-1.318,1.948-1.725,3.025
					c-1.963,5.184-3.401,10.521-4.292,15.929c-0.109,0.662-0.193,1.394,0.243,1.955c0.903,1.161,3,0.602,4.323-0.18
					c2.322-1.374,4.34-3.358,6.571-4.899c0.572,1.948,1.73,6.422,2.552,6.942c2.072,1.312,4.809-0.802,6.747-1.426
					c3.762-1.213,7.561-2.393,11.256-3.746c1.65-0.604,6.922-2.004,7.54-3.594c0.587-1.51-3.134-4.33-4.243-5.418
					C237.978,88.978,236.04,87.075,234.101,85.171z"/>
				<path style="fill:#37474F;" d="M225.872,85.194c1.796,2.332,2.501,5.258,1.926,7.986c0.471,0.29,1.107-0.049,1.49-0.414
					c0.382-0.365,0.822-0.813,1.394-0.749c0.358,0.04,0.64,0.278,0.892,0.503c1.614,1.441,3.293,2.979,3.839,4.915
					c0.075,0.266,0.126,0.554,0.008,0.806c-0.155,0.331-0.558,0.517-0.939,0.658c-2.163,0.8-4.528,0.892-6.753,0.107
					c0.166,1.131-0.406,2.313-1.451,3s-2.527,0.856-3.761,0.428c-0.075-0.026-0.153-0.055-0.233-0.049
					c-0.111,0.008-0.199,0.081-0.273,0.152c-0.319,0.309-0.563,0.679-0.931,0.945c-0.368,0.266-0.928,0.407-1.337,0.179
					c-0.242-0.135-0.38-0.368-0.503-0.592c-0.761-1.388-1.352-2.843-1.76-4.333c-0.142-0.52-0.26-1.072-0.064-1.575
					c0.13-0.335,0.39-0.618,0.647-0.893c1.616-1.728,3.553-3.298,4.887-5.198c0.654-0.932,1.233-1.904,1.729-2.907
					C224.883,87.747,226.161,85.57,225.872,85.194z"/>
			</g>
			<g>
				<path style="fill:#455A64;" d="M287.761,168.722c-4.904,3.885-10.456,7.172-16.454,9.035c-3.858,1.199-8.031,1.833-12.057,1.239
					c-4.291-0.633-8.166-2.84-12.052-4.65c-0.796-0.371-1.607-0.746-2.476-0.869c-1.12-0.16-2.253,0.109-3.349,0.39
					c-4.367,1.117-8.689,2.454-13.14,3.166c-4.784,0.766-10.781,1.212-14.914-1.718c-1.914-1.357-3.081-3.507-4.181-5.579
					c-1.351-2.544-2.644-5.129-3.944-7.68c-0.294-0.577-0.606-1.182-1.141-1.549c-1.312-0.899-4.343,0.318-5.708,0.59
					c-0.17,0.034-0.347,0.068-0.514,0.024c-0.462-0.121-0.58-0.716-0.588-1.194c-0.064-3.815,1.223-7.64,3.582-10.639
					c-1.043,0.241-2.086,0.482-3.129,0.723c-0.279,0.064-0.635,0.1-0.791-0.14c-0.09-0.139-0.072-0.32-0.047-0.484
					c0.868-5.609,5.177-9.496,8.464-13.789c1.71-2.234,3.229-4.424,3.989-7.128c0.986-3.51,1.874-7.047,2.661-10.607
					c0.697-3.154,1.339-6.391,2.97-9.179c1.74-2.974,4.483-5.22,7.314-7.185c5.667-3.933,11.932-7,18.509-9.08
					c6.763-2.139,13.47-3.595,20.526-1.881c18.961,4.605,28.506,9.78,33.887,29.145c0.516,1.912,2.02,17.548,2.786,19.011
					C299.89,151.64,295.925,162.255,287.761,168.722z"/>
				<path style="fill:#455A64;" d="M295.844,170.48c-9.931,7.866-24.3,14.241-35.176,7.821c-0.087,0.027-0.628-1.701-0.715-1.675
					c0,0-7.717,1.871-16.197,4.104c-3.689,0.971-8.939,1.901-12.742,1.942c-5.332,0.057-10.588-5.546-13.692-9.423
					c-1.381-1.724-2.075-3.602-3.163-5.451c-0.267-0.454-2.785-5.933-2.396-6.011c-1.778,0.356-3.555,0.712-5.333,1.067
					c-0.17,0.034-0.347,0.068-0.514,0.024c-0.462-0.121-0.58-0.716-0.588-1.194c-0.064-3.815,1.223-7.639,3.582-10.639
					c-1.043,0.241-2.086,0.482-3.13,0.723c-0.279,0.064-0.635,0.1-0.791-0.14c-0.09-0.139-0.072-0.32-0.047-0.483
					c0.682-4.416,3.933-7.952,7.193-11.007c3.261-3.056,6.808-6.102,8.428-10.267c0.626-1.61,0.934-3.323,1.364-4.997
					c0.816-3.179,1.776-6.265,2.53-9.464c0.501-2.127,0.94-4.92,2.359-6.675c7.778-9.612,26.517-20.334,42.557-16.438
					c18.961,4.605,28.506,9.78,33.887,29.145c0.516,1.912,2.02,17.548,2.786,19.01C307.973,153.398,304.008,164.013,295.844,170.48z
					"/>
				<path style="fill:#455A64;" d="M313.83,148.969c-0.61-6.285-5.552-11.141-10.049-15.576c-4.496-4.434-9.142-9.77-8.889-16.08
					l-45.065,54.384c1.336,2.966,2.673,5.932,4.01,8.898c0.334,0.742,0.789,1.581,1.592,1.71c0.615,0.099,1.195-0.265,1.784-0.468
					c3.294-1.135,6.131,2.684,9.507,3.544c3.548,0.904,7.177-0.23,9.872-2.709c2.695-2.479,5.532-6.647,9.191-6.503
					c1.273,0.05,2.518,0.47,3.792,0.448c2.555-0.043,4.803-1.889,6.051-4.118c1.249-2.229,1.682-4.809,2.096-7.33
					c3.587,0.54,6.835-2.763,7.584-6.312c0.749-3.549-0.32-7.201-1.378-10.67C307.209,148.651,310.518,148.912,313.83,148.969z"/>
			</g>
			<g>
				<path style="fill:#E0E0E0;" d="M229.55,184.375c1.611,1.685,3.391,3.267,5.628,3.801c2.725,0.65,5.794-0.557,7.346-2.889
					c3.086,1.944,7.707,4.164,11.454,3.92c0.372-0.024,0.782-0.084,1.019-0.371c0.191-0.231,0.219-0.552,0.238-0.852
					c0.072-1.115,0.144-2.23,0.216-3.346c5.623,1.663,11.66,1.909,17.4,0.71c-1.956-2.717-3.912-5.435-5.868-8.152
					c-1.659-2.305-3.337-4.643-4.355-7.295c-0.416-1.083-0.841-2.346-1.919-2.773c-0.626-0.248-1.331-0.141-1.994-0.025
					c-8.834,1.549-17.48,4.17-25.688,7.788c-2.837,1.251-5.805,0.914-8.761,1.891c-0.494,0.163-0.991,0.353-1.394,0.683
					c-1.354,1.108-1.068,3.387,0.096,4.694c1.385,1.556,3.793,2.098,5.712,1.286C228.966,183.755,229.255,184.066,229.55,184.375z"
					/>
				<path style="opacity:0.05;" d="M229.55,184.375c1.611,1.685,3.391,3.267,5.628,3.801c2.725,0.65,5.794-0.557,7.346-2.889
					c3.086,1.944,7.707,4.164,11.454,3.92c0.372-0.024,0.782-0.084,1.019-0.371c0.191-0.231,0.219-0.552,0.238-0.852
					c0.072-1.115,0.144-2.23,0.216-3.346c5.623,1.663,11.66,1.909,17.4,0.71c-1.956-2.717-3.912-5.435-5.868-8.152
					c-1.659-2.305-3.337-4.643-4.355-7.295c-0.416-1.083-0.841-2.346-1.919-2.773c-0.626-0.248-1.331-0.141-1.994-0.025
					c-8.834,1.549-17.48,4.17-25.688,7.788c-2.837,1.251-5.805,0.914-8.761,1.891c-0.494,0.163-0.991,0.353-1.394,0.683
					c-1.354,1.108-1.068,3.387,0.096,4.694c1.385,1.556,3.793,2.098,5.712,1.286C228.966,183.755,229.255,184.066,229.55,184.375z"
					/>
				<path style="fill:#F5F5F5;" d="M208.137,172.23c0.234,0.482,0.472,0.961,0.715,1.438c0.478,0.938,0.994,1.888,1.79,2.576
					c0.755,0.653,1.708,1.022,2.64,1.379c2.655,1.018,5.354,2.046,8.187,2.288c2.456,0.209,4.922-0.181,7.336-0.678
					c3.492-0.718,6.934-1.66,10.336-2.727c1.338-0.42,2.69-0.863,4.091-0.913c3.34-0.12,6.237,1.893,9.295,2.914
					c1.495,0.499,2.853,0.909,4.207-0.034c1.245-0.867,2.227-2.334,1.844-3.914c1.191,0.61,5.052,1.975,5.774,0.267
					c1.229-2.903-2.089-7.635-3.327-10.215c-1.852-3.86-3.998-10.66-6.208-14.33c-4.936-8.197-16.116-12.16-16.051-15.295
					c0.217-10.398,0.774-17.062,2.962-23.208c2.188-6.146,10.081-13.428,7.574-14.073c-1.979-0.509-13.47,8.783-15.232,11.882
					c-2.103,3.698-7.895,20.823-11.876,24.106c-2.352,1.939-10.929,4.949-10.994,4.977c-0.644,0.279-3.111,5.34-3.854,6.781
					c-1.287,2.496-2.565,5.296-3.579,7.923c-0.413,1.072-0.999,2.433-1.106,3.574c-0.273,2.91,1.279,5.668,2.358,8.262
					C206.004,167.574,207.019,169.926,208.137,172.23z"/>
				<path style="opacity:0.05;" d="M227.789,170.511c-0.185-0.053-0.395,0.048-0.574,0.141c-4.321,2.262-11.062,0.956-13.028-3.844
					c-0.376-0.919-0.571-1.907-0.992-2.806c-0.095-0.203-0.224-0.419-0.44-0.48c-1.737-0.493-0.609,3.601-0.424,4.275
					c0.74,2.695,3.782,4.463,6.353,5.09c1.735,0.423,3.623,0.475,5.373,0.113c0.879-0.182,1.75-0.478,2.507-0.969
					c0.246-0.16,1.732-1.259,1.293-1.491C227.835,170.527,227.812,170.518,227.789,170.511z"/>
			</g>
			<g>
				<path style="fill:#263238;" d="M214.96,152.455c0.063,0.015,0.126,0.03,0.188,0.045c0.913,0.221,1.825,0.504,2.618,1.006
					c0.66,0.418,1.22,0.976,1.745,1.555c0.735,0.81,1.428,1.697,1.757,2.74c0.555,1.755,0.026,3.385-1.438,4.368
					c-1.889,1.268-3.887,2.458-6.049,3.196c-1.382,0.471-3.592,0.382-4.898-0.29c-0.841-0.433-1.489-1.161-2.071-1.907
					c-1.086-1.39-2.021-2.897-2.782-4.488c-0.266-0.556-0.516-1.14-0.536-1.757c-0.093-2.837,3.822-5.056,6.263-5.164
					C211.511,151.681,213.264,152.049,214.96,152.455z"/>
			</g>
			<g>
				<path style="fill:#455A64;" d="M281.143,76.961c0.713-0.928,1.586-1.955,2.756-1.962c0.861-0.005,1.608,0.557,2.282,1.092
					c3.263,2.591,8.476,5.366,10.906,8.739c2.013,2.794,0.67,8.124,0.297,11.473c-1.029,9.244-2.539,17.05-5.056,27.413
					c-1.23,0.71-4.39-0.448-5.592-1.204c-6.758-4.251-13.186-9.027-19.207-14.27c-2.115-1.841-5.747-4.799-6.08-7.824
					c-0.321-2.916,2.704-4.641,4.579-6.459C271.473,88.678,276.523,82.977,281.143,76.961z"/>
				<path style="fill:#37474F;" d="M278.345,85.371c-0.016,0.083-0.03,0.166-0.042,0.251c-0.128,0.859-0.081,1.747-0.329,2.579
					c-0.378,1.266-1.38,2.231-2.344,3.135c-0.952,0.893-1.905,1.786-2.857,2.68c-1.338,1.255-2.71,2.556-3.457,4.231
					c-0.065,0.146-0.126,0.308-0.081,0.461c0.071,0.241,0.357,0.335,0.603,0.383c1.279,0.249,2.605,0.253,3.885,0.012
					c-0.078,0.579-0.156,1.158-0.234,1.738c-0.163,1.213-0.326,2.45-0.112,3.654c0.215,1.205,0.872,2.396,1.966,2.944
					c0.402,0.201,0.869,0.309,1.305,0.199c0.37-0.094,0.683-0.334,0.985-0.568c0.674-0.524,1.349-1.047,2.024-1.571
					c-0.112,1.668,0.205,3.362,0.913,4.876c0.424,0.907,1.151,1.846,2.152,1.858c1.141,0.014,1.801-1.08,2.37-1.898
					c0.727,1.178,2.837,4.735,4.643,3.674c0.487-0.286,0.79-0.799,1.052-1.299c2.515-4.81,2.912-10.261,3.859-15.494
					c-0.806,1.135-1.871,2.084-3.089,2.757c-1.315,0.725-3.01,1.099-4.28,0.298c-0.638-0.402-1.081-1.049-1.445-1.709
					c-1.494-2.705-1.947-5.853-2.185-8.934c-0.146-1.896-0.22-3.798-0.443-5.687c-0.184-1.557-0.306-3.375-0.796-4.853
					C280.652,80.909,278.813,82.899,278.345,85.371z"/>
			</g>
			<g>
				<g>
					<path style="fill:#FFFFFF;" d="M252.291,125.491c-2.105,0.171-3.843,2.241-3.883,4.624c-0.04,2.383,1.635,4.177,3.739,4.006
						c2.105-0.171,3.843-2.241,3.883-4.624C256.07,127.114,254.396,125.32,252.291,125.491z"/>
					<path style="fill:#263238;" d="M252.507,124.684c-2.105,0.171-3.843,2.241-3.883,4.624c-0.04,2.383,1.634,4.177,3.739,4.006
						c2.105-0.171,3.843-2.241,3.883-4.624C256.286,126.307,254.612,124.513,252.507,124.684z"/>
					<path style="fill:#FAFAFA;" d="M253.471,128.735c-0.626,0.159-1.202-0.279-1.286-0.978s0.355-1.394,0.981-1.553
						c0.626-0.159,1.201,0.279,1.285,0.978S254.097,128.576,253.471,128.735z"/>
				</g>
				<g>
					<path style="fill:#FFFFFF;" d="M219.329,122.381c-1.857,0.051-3.481,1.788-3.628,3.88c-0.146,2.092,1.24,3.746,3.097,3.695
						c1.857-0.051,3.481-1.788,3.628-3.88C222.573,123.984,221.186,122.33,219.329,122.381z"/>
					<path style="fill:#263238;" d="M219.557,121.682c-1.857,0.051-3.481,1.788-3.628,3.88c-0.147,2.092,1.24,3.746,3.097,3.695
						c1.857-0.051,3.481-1.789,3.628-3.88C222.8,123.285,221.414,121.631,219.557,121.682z"/>
					<path style="fill:#FAFAFA;" d="M220.213,125.287c-0.557,0.11-1.042-0.301-1.084-0.919c-0.041-0.618,0.378-1.208,0.935-1.319
						c0.557-0.11,1.042,0.301,1.083,0.919C221.189,124.586,220.771,125.177,220.213,125.287z"/>
				</g>
			</g>
		</g>
		<path style="fill:#37474F;" d="M307.04,156.331c-0.3-2.42-1.049-5.038-2.238-7.162c-0.187-0.334-0.437,0.156-0.383,0.36
			c0.415,1.565,0.891,3.306,0.635,4.924c-0.31,1.966-0.788,4.018-1.734,5.783c-1.362,2.543-4.201,4.76-7.211,4.553
			c-0.862-0.059-1.92,0.388-1.651,1.462c0.705,2.807-0.38,5.715-2.68,7.483c-2.429,1.867-5.563,2.231-8.522,1.93
			c-2.451-0.249-4.049,1.804-5.448,3.525c-2.003,2.466-4.308,4.686-6.847,6.596c-0.023,0.017,1.02,0.003,1.237-0.075
			c0.598-0.215,1.177-0.522,1.727-0.837c1.809-1.035,3.372-2.445,4.896-3.852c0.715-0.66,1.42-1.332,2.148-1.978
			c0.958-0.851,1.559-1.055,2.854-0.92c3.59,0.373,7.451-0.276,10.308-2.618c2.368-1.941,3.914-4.983,3.698-8.046
			c3.243-0.356,6.13-2.169,7.867-5.054C306.782,160.605,307.3,158.424,307.04,156.331z"/>
		<path style="fill:#37474F;" d="M344.908,199.103c-0.012-1.345-0.518-2.749-1.257-4.027c-2.483-4.296-6.718-7.263-10.984-9.798
			c-1.986-1.18-4.178-2.336-6.476-2.094c0.115,0.653,0.745,1.065,1.312,1.408c2.905,1.756,5.673,3.739,8.269,5.927
			c2.205,1.858,4.823,3.909,5.62,6.79c0.211,0.761,0.304,1.61-0.057,2.313c-0.239,0.467-0.654,0.818-1.085,1.115
			c-1.17,0.807-2.547,1.311-3.961,1.449c-0.608,0.06-1.387,0.182-1.514,0.78c-0.113,0.529,0.404,0.955,0.823,1.297
			c1.105,0.901,1.951,2.378,1.493,3.728c-0.334,0.985-1.301,1.655-2.314,1.89c-1.013,0.235-2.074,0.101-3.096-0.092
			c-0.431-0.081-0.948-0.147-1.242,0.178c-0.656,0.725,0.932,1.977,1.534,2.282c1.25,0.634,3.184,0.531,4.484,0.151
			c1.608-0.47,3.044-1.655,3.597-3.236s0.088-3.526-1.258-4.523c1.514-0.317,3.038-0.791,4.254-1.747
			C344.399,201.832,344.921,200.5,344.908,199.103z"/>
		<path style="fill:#37474F;" d="M302.931,286.041c-0.194-0.23-0.787,0.139-1.359,0.269c-1.336,0.304-2.8-0.028-3.893-0.85
			c-1.453-1.092-2.249-2.922-2.315-4.738c-0.889,0.865-1.809,1.75-2.957,2.221c-1.148,0.471-2.594,0.435-3.496-0.416
			c-0.458-0.432-0.732-1.027-0.906-1.632c-0.358-1.245-0.333-2.566-0.218-3.856c0.216-2.418,0.745-4.808,1.563-7.094
			c0.376-1.051,0.736-2.112,1.2-3.129c0.47-1.029,1.308-1.886,1.395-3.005c-0.639-0.165-1.217,0.397-1.623,0.917
			c-3.761,4.821-6.008,11.103-4.883,17.113c0.275,1.468,0.807,2.991,1.994,3.896c1.49,1.136,3.633,0.983,5.357,0.248
			c0.136-0.058,0.293-0.119,0.425-0.054c0.088,0.043,0.142,0.133,0.193,0.217c1.027,1.681,2.848,2.851,4.803,3.088
			c1.091,0.132,2.242-0.026,3.182-0.596c0.668-0.405,1.328-1.105,1.529-1.882C303.025,286.357,303.016,286.142,302.931,286.041z"/>
		<path style="fill:#37474F;" d="M288.043,141.625c-0.262-0.361-0.565-0.682-0.895-0.982c0.2-0.037,0.395-0.077,0.568-0.135
			c0.628-0.212,1.319-0.444,1.842-0.868c1.31-1.06,0.418-2.546-0.525-3.535c-1.065-1.119-2.428-2.078-3.685-2.972
			c-1.46-1.038-2.974-2.023-4.687-2.582c-0.42-0.137-0.345,0.698-0.151,0.861c1.267,1.055,2.628,1.977,3.941,2.973
			c0.626,0.475,1.239,0.966,1.837,1.474c0.436,0.37,1.194,0.833,1.471,1.343c0.155,0.286,0.166,0.179-0.042,0.442
			c-0.156,0.197-0.73,0.334-0.967,0.426c-0.632,0.246-1.265,0.324-1.917,0.475c-1.38,0.321-1.713,1.622-0.774,2.675
			c0.366,0.41,0.852,0.655,1.236,1.038c0.432,0.431,0.735,1.02,0.956,1.582c0.385,0.982,0.715,2.299,0.376,3.336
			c-0.314,0.963-1.322,1.314-2.252,1.074c-0.617-0.16-1.168-0.55-1.693-0.896c-0.545-0.359-1.142-0.575-1.693-0.917
			c-0.289-0.179-0.518-0.352-0.832-0.477c-0.345-0.137-0.318,0.497-0.274,0.647c0.209,0.707,0.374,1.502,0.852,2.083
			c0.308,0.374,0.703,0.71,1.088,1.001c0.758,0.573,1.697,0.963,2.636,1.111c1.674,0.265,3.59-0.188,4.564-1.671
			c0.971-1.479,0.746-3.423,0.23-5.03C288.97,143.211,288.593,142.383,288.043,141.625z"/>
		<g>
			<path style="fill:#263238;" d="M439.532,325.658c3.619-0.74,7.764-0.894,10.817-2.971c-7.052,13.987-25.59,19.163-39.716,20.293
				c2.982-4.76,5.109-10.106,6.363-15.565c1.851-8.029,2.026-16.294,1.44-24.539c3.172-6.737,3.985-13.753,6.1-20.738
				c2.168,1.126,3.765,3.291,4.201,5.694c1.388-5.972,1.454-12.372-0.682-18.12c-2.136-5.747-6.654-10.751-12.476-12.673
				c-4.645-1.534-9.441-0.535-15.535,0.32c-6.668,0.935-15.214,0-20.787-3.394c2.264-1.637,7.747-4.321,10.764-11.784
				c-12.635,9.921-29.114,14.845-45.111,13.436c2.508,0.216,4.462-7.165,4.544-8.8c0.195-3.691-0.092-7.474,0.422-11.236
				c1.172-8.779,5.438-17.117,11.863-23.213c-5.418,2.58-10.527,5.829-15.153,9.663c2.878-7.042,5.86-14.269,11.041-19.851
				c0.278-0.288,0.555-0.586,0.853-0.874c1.532-1.573,3.177-3.074,4.924-4.462c6.765-5.459,14.968-9.386,23.079-10.085
				c13.94-1.192,25.66,0.925,34.121,6.158c-1.83-3.979-4.904-7.361-8.687-9.55c34.378,3.773,57.794,41.262,58.41,72.854
				C471.285,282.364,462.789,310.059,439.532,325.658z"/>
			<path style="fill:#F5F5F5;" d="M415.579,257.04c1.993,0.658,3.829,1.684,5.473,2.971c0.383,0.299,2.624-3.628,2.75-4.071
				c0.428-1.502,0.26-3.486-0.497-4.835c-0.73-1.301-1.878-2.306-3.004-3.284c2.273-0.152,4.534-0.48,6.757-0.979
				c2.42-0.544,4.957-1.401,6.448-3.383c1.491-1.982,1.28-5.37-0.966-6.422c5.366-0.09,11.122-0.307,15.43-3.508
				c0.718-0.533,1.398-1.165,1.764-1.981c0.571-1.271,0.288-2.755-0.147-4.078c-1.291-3.931-3.71-6.518-6.577-9.335
				c-1.633-1.605-6.34-7.092-8.969-6.696c4.508-0.679,8.993-1.518,13.441-2.516c1.536-0.345,3.143-0.747,4.294-1.821
				c0.052-0.048,0.092-0.102,0.141-0.152c-10.088-12.571-23.83-21.807-40-23.582c3.783,2.19,6.857,5.572,8.687,9.55
				c-8.461-5.233-20.18-7.35-34.121-6.158c-8.111,0.699-16.315,4.626-23.079,10.085c-1.748,1.388-3.393,2.889-4.924,4.462
				c-0.298,0.288-0.576,0.586-0.853,0.874c-5.181,5.582-8.163,12.809-11.041,19.851c4.626-3.835,9.735-7.083,15.153-9.663
				c-6.425,6.096-10.691,14.434-11.863,23.213c-0.514,3.763-0.226,7.546-0.422,11.236c-0.082,1.635-2.035,9.016-4.544,8.8
				c15.996,1.408,32.476-3.516,45.111-13.436c-3.017,7.463-8.5,10.147-10.764,11.784c5.573,3.394,14.119,4.33,20.787,3.394
				C406.138,256.505,410.934,255.507,415.579,257.04z"/>
			<path style="fill:#E0E0E0;" d="M379.257,253.965c5.573,3.394,14.119,4.33,20.787,3.394c6.094-0.855,10.889-1.853,15.535-0.32
				c1.993,0.658,3.829,1.684,5.473,2.971c0.383,0.3,2.624-3.628,2.75-4.071c0.428-1.502,0.26-3.486-0.497-4.835
				c-0.73-1.301-1.878-2.306-3.004-3.284c2.273-0.152,4.534-0.48,6.757-0.979c2.193-0.493,4.475-1.253,5.995-2.865
				c-0.398,0.047-0.795,0.093-1.183,0.127c-4.535,0.398-9.202-1.008-12.763-3.844c-0.961-0.765-1.925-1.912-1.563-3.086
				c-4.796,3.074-10.145,6.278-15.785,5.478c-0.951-0.135-1.943-0.418-2.586-1.132c-0.863-0.96-0.855-2.403-0.704-3.685
				c0.269-2.285,0.836-4.535,1.683-6.674c-8.594-1.828-16.953,4.487-25.74,4.397c-1.16-0.012-2.61-0.388-2.804-1.532
				c-0.09-0.529,0.14-1.054,0.364-1.542c0.976-2.121,1.951-4.241,2.927-6.362c-4.483,2.931-9.243,5.44-14.195,7.482
				c-1.957,0.807-4.431,1.463-6.003,0.045c-0.982-0.885-1.247-2.309-1.332-3.628c-0.18-2.788,0.214-5.606,1.114-8.251
				c-2.37,4.27-3.961,8.972-4.607,13.812c-0.514,3.763-0.226,7.546-0.422,11.236c-0.082,1.635-2.035,9.016-4.544,8.8
				c15.996,1.408,32.476-3.516,45.111-13.436C387.004,249.644,381.521,252.329,379.257,253.965z"/>
		</g>
	</g>
</g>
<g id="Cat_00000121986468264285650540000007880050112258961807_">
	<g id="Cat">
		<g>
			<path style="fill:#37474F;" d="M170.824,320.006c-5.014,50.006,11.437,62.683,16.104,64.133
				c4.668,1.45,10.937,1.902,14.511-3.749c3.574-5.651-7.846-8.876-7.846-8.876c-3.788-13.203,0.546-33.504,5.184-41.1
				c6.713-10.994,10.04-29.315,5.021-43.562C198.778,272.605,171.563,294.974,170.824,320.006z"/>
			<path style="fill:#263238;" d="M192.74,367.747C192.741,367.747,192.741,367.747,192.74,367.747
				c0.225,1.3,0.507,2.562,0.853,3.767c-5.677-1.464-9.635,2.126-9.635,2.126S182.1,368.243,192.74,367.747z"/>
			<g>
				<path style="fill:#263238;" d="M190.151,377.178c0.08-0.043,0.175-0.04,0.265-0.035c0.801,0.047,1.683,0.186,2.403,0.55
					c1.153,0.583,2.039,1.721,2.51,2.915c0.444,1.125,0.54,2.41,0.33,3.597c-0.031,0.174-0.066,0.35-0.106,0.526
					c-0.61,0.153-1.232,0.249-1.858,0.301c0.046-0.149,0.099-0.295,0.131-0.449c0.215-1.007,0.133-1.997-0.179-2.974
					c-0.567-1.773-2.045-3.091-3.503-4.123c-0.033-0.023-0.066-0.047-0.085-0.082c-0.027-0.05-0.016-0.11,0.017-0.158
					C190.096,377.218,190.122,377.194,190.151,377.178z"/>
				<path style="fill:#263238;" d="M199.294,382.85c0.057-0.721,0.029-1.446-0.095-2.162c-0.312-1.797-1.184-3.504-2.512-4.761
					c-0.119-0.113-0.253-0.251-0.225-0.431c0.128-0.5,2.229,0.947,2.446,1.142c0.869,0.784,1.443,1.896,1.769,3.012
					c0.139,0.475,0.219,0.958,0.263,1.443C200.432,381.778,199.882,382.364,199.294,382.85z"/>
			</g>
		</g>
		<g>
			<path style="fill:#37474F;" d="M84.569,340.018c-9.906-2.585-18.082-8.484-25.184-15.693c-1.497-1.52-2.962-3.072-4.326-4.712
				c-14.751-17.735-15.372-44.403-0.968-62.436c5.85-7.323,13.44-13.099,21.511-17.864c5.965-3.521,11.873-5.661,16.61-10.803
				c4.269-4.633,4.057-10.282,2.656-14.329c7.656,3.536,13.663,10.473,16.069,18.556c2.869,9.637,0.36,19.895-5.629,27.774
				c-7.433,9.78-18.15,16.623-24.982,26.665c-6.256,9.196-7.898,21.314-2.882,31.44c4.031,8.139,12.238,13.99,21.202,15.454
				c1.041,0.17,2.163,0.318,2.941,1.03c1.379,1.264,0.847,3.728-0.607,4.905s-3.451,1.382-5.321,1.405
				C91.915,341.457,88.189,340.963,84.569,340.018z"/>
			<path style="fill:#F5F5F5;" d="M110.938,232.737c2.869,9.637,0.359,19.895-5.629,27.774c-1.06,1.395-2.192,2.725-3.365,4.018
				c1.37-2.742,2.225-5.742,2.499-8.796c-0.174,1.936-9.782,9.094-10.375,7.506c-0.121-0.323-0.02-0.682,0.083-1.011
				c1.177-3.738,3.046-6.982,3.466-10.915c-5.283,2.693-9.762,6.929-15.348,8.92c-0.363,0.129-0.85,0.212-1.064-0.109
				c-0.112-0.169-0.097-0.39-0.067-0.591c0.177-1.199,0.707-2.314,1.255-3.395c1.918-3.781,4.149-7.402,6.664-10.815
				c-3.653,1.723-7.16,3.756-10.471,6.069c-1.478,1.032-3.157,2.178-4.924,1.822c0.071-3.313,1.479-6.578,3.839-8.904
				c-7.766,3.02-15.13,6.451-21.99,11.195c5.636-6.531,12.65-11.8,20.09-16.192c5.965-3.521,11.874-5.661,16.61-10.803
				c4.269-4.633,4.057-10.282,2.656-14.329C102.525,217.718,108.532,224.655,110.938,232.737z"/>
		</g>
		<g>
			<path style="fill:#455A64;" d="M123.739,367.461c8.525,4.031,23.634,2.708,29.563-8.395c5.929-11.104,6.222-37.77-9.336-42.877
				C128.409,311.082,109.926,351.004,123.739,367.461z"/>
			<path style="fill:#37474F;" d="M119.44,357.86l6.271-23.367c-0.961-2.284-2.469-4.447-4.199-6.414
				c0.346-1.224,0.717-2.431,1.113-3.614c2.854,2.257,5.62,5.222,7.713,9.105c7.045,13.067,2.666,30.239,2.666,30.239
				s5.141,4.182,14.661-5.543c4.12-4.209,6.883-9.988,8.694-15.191c-0.206,6.757-1.276,12.654-3.057,15.99
				c-5.929,11.104-21.038,12.426-29.563,8.395C121.656,364.979,120.261,361.669,119.44,357.86z"/>
			<path style="fill:#455A64;" d="M193.62,249.786c-5.954,12.962,16.086,30.029,10.44,55.329
				c-4.222,18.921-25.798,30.428-31.539,37.231c-5.74,6.803-8.88,26.688-4.694,39.77c0,0,11.512,2.878,8.111,8.634
				c-3.401,5.756-9.681,5.495-14.391,4.186c-4.71-1.308-23.548-14.39-22.763-64.365c0,0-10.055-6.544-13.074,3.922
				c0,0,3.929,7.898,3.605,17.35c-0.287,8.372-5.577,15.617-5.577,15.617s6.018-0.262,10.466,0.785
				c4.448,1.047,5.495,4.971,4.448,7.588c-1.046,2.616-6.018,5.233-10.989,4.186c-4.971-1.047-28.846-5.709-40.555-19.362
				c-11.71-13.654-16.364-36.495-9.229-49.815c9.356-17.465,17.666-23.312,48.87-38.311c13.447-6.464,19.308-17.237,19.829-28.563
				L193.62,249.786z"/>
			<path style="fill:#FAFAFA;" d="M204.225,290.07c-0.921-0.869-1.691-1.793-2.926-2.322c1.461,3.801,1.652,8.125,0.264,11.937
				c-0.357,0.981-0.987,2.356-1.973,4.172c-0.078-1.095-0.497-2.587-0.989-3.867c0.487,1.785-0.438,5.119-0.956,6.511
				c-2.003,5.377-6.413,12.451-12.522,18.083c2.015-4.238,1.444-9.49-1.383-12.712c-0.199,1.507-0.398,3.014-0.598,4.522
				c-3.145-1.513-4.721-4.566-6.485-7.363c-1.061-1.683-3.391-7.891-1.32-9.627c-1.401,1.174-2.308,2.92-2.463,4.742
				c-0.067,0.791-0.3,1.893-1.09,1.819c-0.285-0.027-0.52-0.226-0.73-0.421c-8.137-7.566-11.841-22.347-2.967-37.044
				c1.965-3.255,26.179-3.968,27.323-3.091c4.22,3.238,4.839,4.521,6.197,7.006c1.811,3.315,2.965,6.527,3.291,12.637
				C204.93,285.664,204.833,287.455,204.225,290.07z"/>
			<path style="fill:#BA68C8;" d="M193.62,249.786l-47.042-5.817c-0.202,4.403-1.299,8.803-3.313,12.977
				c3.786,4.585,11.701,8.139,15.866,9.429c8.777,2.718,18.163,3.724,27.275,2.346c0.971-0.147,1.931-0.36,2.875-0.632
				c2.154-0.621,4.2-1.548,6.13-2.681C192.939,259.555,191.498,254.408,193.62,249.786z"/>
			<g>
				<path style="fill:#37474F;" d="M108.633,317.77c0,0,11.776,1.841,19.522,12.367c-0.98,1.132-1.923,2.552-2.444,4.356
					C121.771,325.122,108.633,317.77,108.633,317.77z"/>
			</g>
			<path style="fill:#37474F;" d="M145.539,375.529c-9.118-25.31-9.118-46.686-9.118-46.689c0.614-15.838,5.594-17.996,5.594-17.996
				s-2.927,6.242-3.229,19.728C138.785,330.572,138.917,346.817,145.539,375.529z"/>
			<path style="fill:#37474F;" d="M166.862,378.376C166.862,378.376,166.862,378.376,166.862,378.376
				c0.264,1.293,0.584,2.545,0.966,3.74c-5.718-1.292-9.566,2.417-9.566,2.417S156.241,379.193,166.862,378.376z"/>
			<path style="fill:#37474F;" d="M117.014,371.709c0,0,3.869-0.91,6.725-4.249c0,0,2.93-0.126,6.211,0.152
				C125.379,373.199,117.014,371.709,117.014,371.709z"/>
			<g>
				<path style="fill:#263238;" d="M164.559,387.881c0.078-0.045,0.174-0.046,0.264-0.043c0.803,0.023,1.688,0.135,2.419,0.477
					c1.17,0.548,2.09,1.659,2.597,2.838c0.478,1.111,0.613,2.393,0.439,3.585c-0.025,0.175-0.055,0.351-0.09,0.529
					c-0.605,0.172-1.224,0.286-1.848,0.357c0.041-0.15,0.09-0.298,0.118-0.452c0.185-1.013,0.073-2-0.269-2.967
					c-0.621-1.755-2.137-3.028-3.626-4.015c-0.033-0.022-0.068-0.045-0.088-0.08c-0.029-0.049-0.019-0.11,0.012-0.159
					C164.505,387.923,164.53,387.898,164.559,387.881z"/>
				<path style="fill:#263238;" d="M173.869,393.274c0.036-0.723-0.014-1.446-0.16-2.158c-0.366-1.786-1.29-3.467-2.655-4.683
					c-0.123-0.109-0.26-0.243-0.238-0.424c0.113-0.504,2.257,0.879,2.48,1.068c0.893,0.758,1.5,1.851,1.86,2.957
					c0.153,0.471,0.248,0.951,0.307,1.435C174.975,392.168,174.442,392.77,173.869,393.274z"/>
			</g>
			<g>
				<path style="fill:#263238;" d="M128.594,374.219c0.063-0.065,0.154-0.092,0.241-0.114c0.777-0.201,1.659-0.338,2.456-0.211
					c1.276,0.203,2.467,1.016,3.281,2.009c0.647,0.789,1.079,1.765,1.3,2.767c-0.5,0.294-1.049,0.556-1.635,0.781
					c-0.175-0.75-0.503-1.441-0.96-2.082c-1.082-1.515-2.891-2.318-4.595-2.855c-0.038-0.012-0.077-0.025-0.106-0.052
					c-0.041-0.039-0.049-0.1-0.033-0.156C128.554,374.273,128.571,374.243,128.594,374.219z"/>
				<path style="fill:#263238;" d="M137.996,376.909c-0.166-0.669-0.409-1.315-0.73-1.928c-0.846-1.615-2.198-2.975-3.847-3.765
					c-0.148-0.071-0.317-0.162-0.346-0.342c-0.031-0.515,2.412,0.22,2.678,0.34c1.068,0.481,1.954,1.364,2.605,2.327
					c0.237,0.351,0.432,0.723,0.606,1.103c-0.06,0.415-0.162,0.817-0.311,1.19C138.508,376.196,138.281,376.557,137.996,376.909z"/>
			</g>
			<path style="fill:#37474F;" d="M173.138,318.746c0,0,1.426,17.247-3.055,27.576c0,0,0.001,0.002,0.001,0.002
				c0.74-1.585,1.558-2.937,2.437-3.979c1.028-1.219,2.571-2.591,4.424-4.127C176.894,327.864,173.138,318.746,173.138,318.746z"/>
		</g>
		<g>
			<g>
				<path style="fill:#37474F;" d="M142.138,219.855c-4.306-7.568-3.128-25.253,3.265-28.839
					c6.036-3.386,19.924,14.408,19.924,14.408S153.906,218.024,142.138,219.855z"/>
				<path style="fill:#FFA8A7;" d="M149.432,215.313c8.043-4.676,15.895-9.888,15.895-9.888s-13.252-16.915-18.21-14.09
					C143.991,192.67,140.82,202.592,149.432,215.313z"/>
				<path style="fill:#F28F8F;" d="M160.76,205.7c-1.417-0.688-2.24-1.505-3.278-2.999c-1.037-1.494-1.474-2.886-1.526-4.936
					c-2.984,2.044-4.225,6.97-4.225,6.97c-4.347-0.699-4.074-5.052-4.074-5.052c-2.214,2.388-2.139,8.412,1.672,11.542
					c0,0,2.617,0.547,6.022-1.012C158.757,208.655,160.529,206.895,160.76,205.7z"/>
			</g>
			<path style="fill:#455A64;" d="M151.64,212.364c-2.857-1.988-4.65-6.209-3.443-9.118c0,0,1.976,2.491,4.279,2.58
				c0,0,1.125-8.229,5.68-9.482c0,0-0.989,5.415,3.047,8.368C162.463,212.362,151.64,212.364,151.64,212.364z"/>
			<g>
				<path style="fill:#37474F;" d="M176.337,201.74c3.994-6.654,15.501-13.195,22.457-8.34c3.92,2.737-3.709,22.187-3.709,22.187
					S182.042,210.317,176.337,201.74z"/>
				<path style="fill:#FFA8A7;" d="M181.905,207.165c6.426,4.401,13.179,8.421,13.179,8.421s7.629-19.45,3.709-22.187
					C196.119,192.141,188.11,194.887,181.905,207.165z"/>
				<path style="fill:#F28F8F;" d="M194.286,211.284c0.506-0.978,1.07-1.693,1.637-2.238c0.427-1.229,0.9-2.665,1.349-4.18
					c-2.613-1.501-6.274-1.497-6.274-1.497c-0.14-2.14,1.788-4.285,1.788-4.285c-2.581-0.741-6.86,1.777-7.761,6.144
					c0,0,0.91,2.581,2.834,4.469c1.421,0.756,2.71,1.392,3.772,1.893C192.441,211.676,193.318,211.61,194.286,211.284z"/>
			</g>
			<path style="fill:#455A64;" d="M186.134,206.73c0.857-3.024,3.737-5.799,6.327-5.628c0,0-1.472,2.42-0.971,4.411
				c0,0,6.759-1.469,8.876,2.047c0,0-4.51,0.754-5.835,5.068C188.819,215.962,186.134,206.73,186.134,206.73z"/>
			<path style="fill:#455A64;" d="M173.654,201.248c7.512,0.73,14.424,4.112,20.092,9.018c5.241,4.537,9.45,10.207,12.784,16.26
				c1.506,2.734,3.131,5.481,3.904,8.528c0.903,3.56,0.853,7.368-0.219,10.886c-0.366-1.479-0.979-2.896-1.804-4.177
				c0.323,1.945-0.379,4.416-1.197,6.21c-0.178-1.063-0.317-2.029-0.759-2.659c-0.4,0.803-0.827,1.343-1.298,2.039
				c-0.565,0.835-1.157,1.651-1.78,2.443c-1.286,1.634-2.696,3.172-4.229,4.577c-3.041,2.789-6.62,5.113-10.611,6.263
				c-0.823,0.237-1.66,0.423-2.507,0.551c-7.946,1.202-16.13,0.325-23.783-2.045c-3.631-1.125-7.16-2.589-10.516-4.374
				c-1.406-0.748-6.202-4.167-6.393-6.505c-0.971,0.405-1.672,1.389-1.738,2.439c-3.245-2.555-4.564-7.293-3.107-11.158
				c-1.748,1.041-3.174,2.615-4.038,4.457c-1.826-2.229-2.129-5.339-1.918-8.213c0.358-4.881,2.751-8.925,5.33-12.946
				C147.142,211.5,159.806,201.85,173.654,201.248z"/>
			<path style="fill:#263238;" d="M206.456,245.314c-0.677,1.332-1.619,2.499-2.463,3.726c-0.842,1.232-1.815,2.37-2.817,3.476
				c-2.023,2.194-4.297,4.184-6.856,5.755c-1.28,0.782-2.622,1.469-4.026,2.01c-1.393,0.579-2.887,0.85-4.357,1.172
				c-2.961,0.453-5.964,0.635-8.959,0.535c-5.992-0.197-11.93-1.423-17.566-3.444c-2.823-1.018-5.555-2.221-8.201-3.688
				c-1.293-0.805-2.49-1.714-3.607-2.74c-0.555-0.516-1.093-1.054-1.563-1.669c-0.457-0.615-0.91-1.291-1.017-2.16l0.439,0.267
				c-0.855,0.351-1.493,1.24-1.55,2.165l-0.037,0.594l-0.465-0.37c-3.351-2.663-4.693-7.511-3.163-11.495l0.385,0.322
				c-1.709,1.002-3.113,2.529-3.97,4.324l-0.156,0.326l-0.224-0.279c-1.236-1.541-1.789-3.496-1.928-5.403
				c-0.147-1.917,0.027-3.846,0.475-5.707c0.923-3.739,2.962-7.032,5.04-10.192c-2.005,3.207-3.96,6.547-4.78,10.252
				c-0.397,1.841-0.52,3.745-0.36,5.615c0.159,1.86,0.725,3.72,1.903,5.148l-0.379,0.047c0.872-1.89,2.319-3.509,4.106-4.59
				l0.647-0.391l-0.262,0.714c-1.382,3.762-0.095,8.355,3.05,10.82l-0.502,0.224c0.077-1.176,0.838-2.251,1.926-2.712l0.387-0.164
				l0.052,0.431c0.076,0.626,0.463,1.256,0.894,1.817c0.437,0.569,0.958,1.086,1.496,1.581c1.08,0.985,2.272,1.88,3.51,2.643
				c2.575,1.402,5.311,2.613,8.085,3.633c5.566,2.023,11.435,3.261,17.358,3.482c2.96,0.099,5.929-0.021,8.864-0.437
				c1.439-0.298,2.899-0.54,4.273-1.09c1.383-0.512,2.712-1.17,3.984-1.924c2.535-1.527,4.843-3.43,6.904-5.568
				c1.021-1.077,2.018-2.187,2.885-3.396C204.779,247.774,205.75,246.627,206.456,245.314z"/>
			<path style="fill:#FAFAFA;" d="M174.995,238.037c8.393-4.829,4.002-25.673,4.002-25.673c4.38,9.099,6.016,19.919,14.687,23.483
				c7.539,3.099,11.571,5.634,9.733,13.896c-3.913,5.721-9.99,11.124-17.182,12.042c-6.21,0.792-13.896,0.414-23.089-2.372
				C159.222,248.344,164.379,244.144,174.995,238.037z"/>
			<g>
				<path style="fill:#FFFFFF;" d="M165.369,230.123c-0.302,1.969,1.049,3.811,3.019,4.113c1.969,0.302,3.811-1.049,4.113-3.019
					c0.302-1.97-1.049-3.811-3.019-4.113C167.513,226.802,165.672,228.154,165.369,230.123z"/>
				<path style="fill:#263238;" d="M164.745,229.833c-0.302,1.969,1.049,3.811,3.019,4.113c1.969,0.302,3.811-1.049,4.113-3.019
					c0.302-1.97-1.049-3.811-3.019-4.113C166.889,226.512,165.047,227.863,164.745,229.833z"/>
				<path style="fill:#FAFAFA;" d="M168.311,229.391c0,0.598-0.485,1.082-1.082,1.082c-0.598,0-1.082-0.485-1.082-1.082
					c0-0.598,0.485-1.082,1.082-1.082C167.827,228.309,168.311,228.794,168.311,229.391z"/>
			</g>
			<g>
				<path style="fill:#FFFFFF;" d="M190.464,227.938c-0.279,1.817,0.968,3.516,2.785,3.796c1.817,0.279,3.517-0.968,3.796-2.786
					c0.279-1.817-0.968-3.517-2.786-3.796C192.442,224.873,190.742,226.12,190.464,227.938z"/>
				<path style="fill:#263238;" d="M189.887,227.67c-0.279,1.817,0.968,3.517,2.786,3.795c1.817,0.279,3.516-0.968,3.796-2.785
					c0.279-1.817-0.968-3.517-2.786-3.796C191.866,224.606,190.166,225.853,189.887,227.67z"/>
				<path style="fill:#FAFAFA;" d="M193.178,227.263c0,0.551-0.447,0.999-0.999,0.999c-0.552,0-0.999-0.447-0.999-0.999
					c0-0.552,0.447-0.999,0.999-0.999C192.731,226.264,193.178,226.711,193.178,227.263z"/>
			</g>
			<g>
				<g>
					<path style="fill:#263238;" d="M161.847,243.35c0.017-0.008,0.032-0.017,0.049-0.028c0.26-0.172,0.335-0.538,0.168-0.818
						c-1.763-2.949-5.055-6.322-10.72-5.648c-0.306,0.035-0.523,0.331-0.482,0.657c0.04,0.326,0.321,0.562,0.628,0.525
						c5.084-0.604,8.045,2.434,9.633,5.091C161.279,243.39,161.594,243.482,161.847,243.35z"/>
				</g>
				<g>
					<path style="fill:#263238;" d="M160.258,244.763c0.055-0.029,0.107-0.069,0.151-0.118c0.213-0.234,0.203-0.611-0.022-0.841
						c-1.884-1.928-5.614-2.795-7.785-2.367c-0.304,0.058-0.498,0.37-0.436,0.693c0.062,0.323,0.358,0.536,0.661,0.476
						c1.896-0.374,5.203,0.421,6.79,2.046C159.795,244.834,160.053,244.87,160.258,244.763z"/>
				</g>
				<g>
					<path style="fill:#263238;" d="M160.484,247.206c0.099-0.058,0.181-0.149,0.231-0.267c0.125-0.297-0.005-0.651-0.288-0.79
						c-2.461-1.212-6.785-1.458-10.51,0.855c-0.264,0.165-0.346,0.528-0.184,0.812c0.16,0.28,0.498,0.377,0.76,0.222
						c0.003-0.002,0.007-0.004,0.011-0.007c3.381-2.105,7.269-1.891,9.471-0.807C160.146,247.308,160.334,247.295,160.484,247.206z"
						/>
				</g>
			</g>
			<g>
				<g>
					<path style="fill:#263238;" d="M203.833,237.15c-0.018-0.005-0.035-0.011-0.053-0.018c-0.289-0.118-0.435-0.461-0.326-0.769
						c1.146-3.238,3.708-7.195,9.396-7.651c0.307-0.026,0.578,0.221,0.602,0.549c0.025,0.328-0.204,0.614-0.512,0.638
						c-5.104,0.411-7.407,3.973-8.44,6.891C204.399,237.077,204.108,237.23,203.833,237.15z"/>
				</g>
				<g>
					<path style="fill:#263238;" d="M205.67,238.222c-0.06-0.017-0.118-0.046-0.172-0.086c-0.255-0.188-0.32-0.559-0.144-0.829
						c1.466-2.262,4.952-3.848,7.165-3.856c0.31-0.003,0.561,0.264,0.564,0.593c0.003,0.329-0.245,0.596-0.554,0.597
						c-1.933,0.007-5.018,1.44-6.253,3.345C206.138,238.2,205.892,238.286,205.67,238.222z"/>
				</g>
				<g>
					<path style="fill:#263238;" d="M205.931,240.661c-0.108-0.038-0.207-0.111-0.279-0.217c-0.181-0.266-0.124-0.639,0.126-0.831
						c2.174-1.673,6.364-2.767,10.472-1.235c0.292,0.109,0.443,0.45,0.341,0.76c-0.102,0.306-0.414,0.468-0.701,0.368
						c-0.003-0.001-0.008-0.003-0.012-0.004c-3.73-1.396-7.499-0.42-9.445,1.077C206.282,240.695,206.095,240.719,205.931,240.661z"
						/>
				</g>
			</g>
			<g>
				<path style="fill:#263238;" d="M194.092,246.872c-0.147-0.348-0.552-0.505-0.893-0.358c-1.51,0.645-2.878,0.599-4.074-0.131
					c-1.492-0.912-2.356-2.68-2.606-3.914c-0.021-0.185-0.046-0.371-0.077-0.559c-0.06-0.36-0.391-0.602-0.751-0.566
					c-0.361,0.043-0.625,0.361-0.601,0.724c0.015,0.202,0.042,0.413,0.083,0.63c0.263,2.645-0.774,4.785-2.896,5.926
					c-2.128,1.143-4.816,0.998-6.256-0.336c-0.275-0.257-0.707-0.24-0.962,0.036c-0.256,0.275-0.24,0.706,0.036,0.962
					c1.035,0.962,2.55,1.456,4.143,1.456c1.244,0,2.536-0.302,3.684-0.918c1.779-0.957,2.947-2.46,3.42-4.324
					c0.534,0.803,1.231,1.531,2.074,2.046c1.097,0.671,2.912,1.251,5.319,0.221C194.079,247.618,194.241,247.218,194.092,246.872z"
					/>
				<path style="fill:#F28F8F;" d="M185.9,243.656c0.971-0.071,3.309-2.354,3.396-3.936c0.087-1.583-7.734-0.522-7.743,0.722
					C181.54,242.205,184.929,243.727,185.9,243.656z"/>
			</g>
		</g>
	</g>
</g>
<g id="Food">
	<g id="Food_2_">
		<path id="XMLID_5572_" style="fill:#BA68C8;" d="M115.113,394.62h0.001l-4.758-19.23H86.451c-7.784-1.363-16.127-1.363-23.911,0
			H38.636l-4.758,19.23h0.001c-1.811,7.156,2.051,14.697,11.589,20.204c16.032,9.256,42.024,9.256,58.056,0
			C113.062,409.318,116.923,401.776,115.113,394.62z"/>
		<path id="XMLID_5571_" style="opacity:0.1;" d="M115.113,394.62h0.001l-4.758-19.23H86.451c-7.784-1.363-16.127-1.363-23.911,0
			H38.636l-4.758,19.23h0.001c-1.811,7.156,2.051,14.697,11.589,20.204c16.032,9.256,42.024,9.256,58.056,0
			C113.062,409.318,116.923,401.776,115.113,394.62z"/>
		<path id="XMLID_5570_" style="fill:#BA68C8;" d="M48.883,393.136c14.146,8.167,37.081,8.167,51.227,0
			c14.146-8.167,14.146-21.409,0-29.576c-14.146-8.167-37.081-8.167-51.226,0C34.737,371.727,34.737,384.969,48.883,393.136z"/>
		<path id="XMLID_5569_" style="opacity:0.5;fill:#FFFFFF;" d="M48.883,393.136c14.146,8.167,37.081,8.167,51.227,0
			c14.146-8.167,14.146-21.409,0-29.576c-14.146-8.167-37.081-8.167-51.226,0C34.737,371.727,34.737,384.969,48.883,393.136z"/>
		<path id="XMLID_5568_" style="opacity:0.7;fill:#BA68C8;" d="M52.181,390.534c12.276,6.811,32.18,6.811,44.457,0
			c12.276-6.811,12.276-17.854,0-24.665c-12.276-6.811-32.181-6.811-44.457,0C39.904,372.68,39.904,383.723,52.181,390.534z"/>
		<g>
			<path style="fill:#B16668;" d="M105.806,379.055c-1.334-2.032-3.685-3.386-6.371-3.386c-0.221,0-0.437,0.013-0.653,0.031
				c0.054-0.259,0.084-0.526,0.084-0.801c0-2.256-1.903-4.086-4.251-4.086c-1.545,0-2.885,0.801-3.63,1.987
				c-0.797-3.177-3.767-5.541-7.318-5.541c-1.856,0-3.551,0.647-4.864,1.716c-0.322-1.949-2.065-3.444-4.184-3.444
				c-2.348,0-4.251,1.829-4.251,4.086c0,0.274,0.03,0.542,0.084,0.801c-0.771-0.256-1.596-0.402-2.458-0.402
				c-2.476,0-4.667,1.153-6.041,2.926c-0.723-1.263-2.104-2.129-3.709-2.129c-2.348,0-4.251,1.829-4.251,4.086
				c0,0.153,0.03,0.298,0.047,0.447c-1.054-0.538-2.254-0.845-3.53-0.845c-3.58,0-6.571,2.402-7.339,5.618
				c0.754,3.805,3.753,7.499,9.011,10.416c12.276,6.811,32.18,6.811,44.457,0C102.384,387.346,105.44,383.23,105.806,379.055z"/>
			<g id="XMLID_5560_">
				<path id="XMLID_5566_" style="fill:#9A4A4D;" d="M54.898,387.25c-1.363-1.319-1.624-3.422-0.511-5.034
					c1.275-1.846,3.863-2.345,5.784-1.12c1.065,0.679,1.701,1.748,1.832,2.88c-0.29-0.445-0.68-0.836-1.163-1.144
					c-1.827-1.165-4.285-0.684-5.495,1.068C54.636,384.927,54.514,386.164,54.898,387.25z"/>
				<path id="XMLID_5565_" style="fill:#9A4A4D;" d="M73.542,387.758c0.208-1.848,1.744-3.367,3.747-3.551
					c2.295-0.211,4.328,1.407,4.547,3.612c0.122,1.223-0.342,2.371-1.174,3.181c0.177-0.497,0.248-1.034,0.193-1.589
					c-0.209-2.097-2.146-3.63-4.323-3.429C75.255,386.098,74.178,386.787,73.542,387.758z"/>
				<path id="XMLID_5564_" style="fill:#9A4A4D;" d="M59.469,382.075c-1.171-1.133-1.395-2.94-0.439-4.325
					c1.095-1.586,3.319-2.015,4.969-0.963c0.915,0.584,1.462,1.502,1.574,2.474c-0.249-0.383-0.583-0.718-0.999-0.983
					c-1.569-1.001-3.681-0.587-4.721,0.918C59.243,380.079,59.139,381.142,59.469,382.075z"/>
				<path id="XMLID_5563_" style="fill:#9A4A4D;" d="M81.258,388.177c-0.588-1.494-0.025-3.232,1.435-4.121
					c1.673-1.018,3.885-0.538,4.945,1.07c0.588,0.892,0.697,1.944,0.387,2.876c-0.065-0.447-0.228-0.885-0.495-1.29
					c-1.008-1.529-3.112-1.98-4.7-1.013C81.899,386.266,81.353,387.195,81.258,388.177z"/>
				<path id="XMLID_5562_" style="fill:#9A4A4D;" d="M73.454,378.539c-0.588-1.494-0.026-3.232,1.435-4.121
					c1.673-1.018,3.885-0.538,4.945,1.07c0.588,0.892,0.696,1.944,0.387,2.876c-0.065-0.447-0.229-0.885-0.495-1.29
					c-1.008-1.529-3.112-1.98-4.7-1.013C74.095,376.628,73.549,377.558,73.454,378.539z"/>
				<path id="XMLID_5561_" style="fill:#9A4A4D;" d="M79.409,376.214c-0.471-1.197-0.02-2.589,1.15-3.301
					c1.341-0.816,3.113-0.432,3.962,0.857c0.47,0.715,0.558,1.558,0.309,2.305c-0.052-0.358-0.182-0.709-0.396-1.033
					c-0.807-1.225-2.493-1.586-3.765-0.812C79.923,374.683,79.485,375.428,79.409,376.214z"/>
			</g>
		</g>
	</g>
	<g id="Food_00000131355603938451924600000018011502481279813564_">
		<path id="XMLID_00000176743771320972738030000013468846674068882578_" style="fill:#BA68C8;" d="M469.522,394.62h0.001
			l-4.758-19.23H440.86c-7.783-1.363-16.127-1.363-23.91,0h-23.905l-4.758,19.23h0.001c-1.811,7.156,2.051,14.697,11.589,20.204
			c16.032,9.256,42.025,9.256,58.056,0C467.471,409.318,471.333,401.776,469.522,394.62z"/>
		<path id="XMLID_00000013904503652172653040000008746319553296249223_" style="opacity:0.1;" d="M469.522,394.62h0.001
			l-4.758-19.23H440.86c-7.783-1.363-16.127-1.363-23.91,0h-23.905l-4.758,19.23h0.001c-1.811,7.156,2.051,14.697,11.589,20.204
			c16.032,9.256,42.025,9.256,58.056,0C467.471,409.318,471.333,401.776,469.522,394.62z"/>
		<path id="XMLID_00000036932611139637480890000003328749772921114795_" style="fill:#BA68C8;" d="M403.292,393.136
			c14.146,8.167,37.081,8.167,51.227,0c14.146-8.167,14.146-21.409,0-29.576c-14.146-8.167-37.08-8.167-51.226,0
			C389.146,371.727,389.146,384.969,403.292,393.136z"/>
		<path id="XMLID_00000140008147020088023320000015216849241173259702_" style="opacity:0.5;fill:#FFFFFF;" d="M403.292,393.136
			c14.146,8.167,37.081,8.167,51.227,0c14.146-8.167,14.146-21.409,0-29.576c-14.146-8.167-37.08-8.167-51.226,0
			C389.146,371.727,389.146,384.969,403.292,393.136z"/>
		<path id="XMLID_00000179620333556844999620000000459387531533168523_" style="opacity:0.7;fill:#BA68C8;" d="M406.59,390.534
			c12.276,6.811,32.18,6.811,44.456,0c12.276-6.811,12.276-17.854,0-24.665c-12.276-6.811-32.181-6.811-44.457,0
			C394.313,372.68,394.314,383.723,406.59,390.534z"/>
		<g>
			<path style="fill:#B16668;" d="M460.216,379.055c-1.335-2.032-3.685-3.386-6.371-3.386c-0.221,0-0.437,0.013-0.653,0.031
				c0.054-0.259,0.084-0.526,0.084-0.801c0-2.256-1.903-4.086-4.251-4.086c-1.545,0-2.885,0.801-3.63,1.987
				c-0.797-3.177-3.767-5.541-7.318-5.541c-1.855,0-3.552,0.647-4.865,1.716c-0.322-1.949-2.065-3.444-4.184-3.444
				c-2.348,0-4.251,1.829-4.251,4.086c0,0.274,0.03,0.542,0.084,0.801c-0.772-0.256-1.596-0.402-2.458-0.402
				c-2.476,0-4.667,1.153-6.041,2.926c-0.723-1.263-2.104-2.129-3.709-2.129c-2.348,0-4.252,1.829-4.252,4.086
				c0,0.153,0.03,0.298,0.047,0.447c-1.053-0.538-2.253-0.845-3.53-0.845c-3.58,0-6.571,2.402-7.339,5.618
				c0.754,3.805,3.753,7.499,9.011,10.416c12.276,6.811,32.18,6.811,44.456,0C456.793,387.346,459.849,383.23,460.216,379.055z"/>
			<g id="XMLID_00000157996461119914234880000015038634760627612330_">
				<path id="XMLID_00000023994647404171625400000000650947712275638164_" style="fill:#9A4A4D;" d="M409.308,387.25
					c-1.363-1.319-1.624-3.422-0.511-5.034c1.275-1.846,3.863-2.345,5.784-1.12c1.065,0.679,1.701,1.748,1.832,2.88
					c-0.29-0.445-0.68-0.836-1.163-1.144c-1.827-1.165-4.285-0.684-5.495,1.068C409.045,384.927,408.924,386.164,409.308,387.25z"/>
				<path id="XMLID_00000135664352783543872620000007818592384107061644_" style="fill:#9A4A4D;" d="M427.952,387.758
					c0.208-1.848,1.744-3.367,3.747-3.551c2.295-0.211,4.328,1.407,4.547,3.612c0.122,1.223-0.342,2.371-1.174,3.181
					c0.177-0.497,0.248-1.034,0.193-1.589c-0.209-2.097-2.146-3.63-4.323-3.429C429.664,386.098,428.587,386.787,427.952,387.758z"
					/>
				<path id="XMLID_00000052068689296237793860000013203218444898625426_" style="fill:#9A4A4D;" d="M413.878,382.075
					c-1.171-1.133-1.395-2.94-0.439-4.325c1.095-1.586,3.319-2.015,4.969-0.963c0.915,0.584,1.462,1.502,1.574,2.474
					c-0.249-0.383-0.583-0.718-0.999-0.983c-1.57-1.001-3.682-0.587-4.721,0.918C413.652,380.079,413.548,381.142,413.878,382.075z"
					/>
				<path id="XMLID_00000036235853450574055450000008542730913936102788_" style="fill:#9A4A4D;" d="M435.668,388.177
					c-0.588-1.494-0.025-3.232,1.435-4.121c1.673-1.018,3.885-0.538,4.945,1.07c0.588,0.892,0.697,1.944,0.387,2.876
					c-0.065-0.447-0.228-0.885-0.495-1.29c-1.008-1.529-3.112-1.98-4.7-1.013C436.309,386.266,435.763,387.195,435.668,388.177z"/>
				<path id="XMLID_00000119837858711800721640000017037493346114862237_" style="fill:#9A4A4D;" d="M427.863,378.539
					c-0.588-1.494-0.026-3.232,1.435-4.121c1.673-1.018,3.885-0.538,4.945,1.07c0.588,0.892,0.696,1.944,0.387,2.876
					c-0.065-0.447-0.229-0.885-0.495-1.29c-1.008-1.529-3.112-1.98-4.7-1.013C428.504,376.628,427.958,377.558,427.863,378.539z"/>
				<path id="XMLID_00000044144133169210848960000009246989811062116508_" style="fill:#9A4A4D;" d="M433.818,376.214
					c-0.471-1.197-0.02-2.589,1.15-3.301c1.341-0.816,3.113-0.432,3.962,0.857c0.47,0.715,0.558,1.558,0.309,2.305
					c-0.052-0.358-0.182-0.709-0.396-1.033c-0.807-1.225-2.493-1.586-3.765-0.812C434.332,374.683,433.895,375.428,433.818,376.214z
					"/>
			</g>
		</g>
	</g>
</g>
<g id="Speech_Bubble">
	<g id="Speech_Bubble_1_">
		<g id="Speech_Bubble_6_">
			<path style="fill:#FAFAFA;" d="M103.582,145.554c7.679,7.55,17.612,11.42,27.616,11.67l4.671-0.153
				c9.313-0.833,18.395-4.834,25.453-12.012c15.782-16.052,15.562-41.952-0.49-57.734c-7.178-7.058-16.328-10.904-25.653-11.579
				l-4.673-0.074c-9.998,0.42-19.864,4.458-27.414,12.137C87.304,103.866,87.524,129.766,103.582,145.554z"/>
			<path style="fill:#E0E0E0;" d="M101.156,148.021c15.624,15.361,39.838,16.734,57.018,4.282l12.634,5.45
				c2.158,0.931,4.331-1.28,3.364-3.421l-5.663-12.539c12.162-17.39,10.379-41.579-5.246-56.941
				c-17.415-17.122-45.517-16.884-62.638,0.531C83.503,102.798,83.741,130.899,101.156,148.021z M103.092,87.808
				c7.55-7.679,17.416-11.717,27.414-12.137l4.673,0.074c9.326,0.675,18.475,4.521,25.653,11.579
				c16.052,15.782,16.271,41.682,0.49,57.734c-7.058,7.178-16.14,11.18-25.453,12.012l-4.671,0.153
				c-10.004-0.25-19.937-4.12-27.616-11.67C87.524,129.766,87.304,103.866,103.092,87.808z"/>
		</g>
		<g>
			<path id="Heart_1_" style="fill:#BA68C8;" d="M132.205,141.497c28.786-15.336,31.107-31.789,22.739-39.834
				c-7.498-7.208-21.214-2.454-22.739,7.846c-1.525-10.3-15.24-15.054-22.739-7.846
				C101.097,109.708,103.418,126.161,132.205,141.497z"/>
		</g>
	</g>
</g>
</svg>
